<?xml version="1.0" encoding="utf-8"?>
<!DOCTYPE svg PUBLIC "-//W3C//DTD SVG 1.0//EN" "http://www.w3.org/TR/2001/REC-SVG-20010904/DTD/svg10.dtd">
<svg version="1.0" xmlns="http://www.w3.org/2000/svg" width="386px" height="386px" viewBox="0 0 386 386" preserveAspectRatio="xMidYMid meet">
 <g fill="#464f52">
  <path d="M21.2 196.8 l0.3 -136.3 28 -0.3 c42.5 -0.4 53.1 1.3 63.1 10.1 4 3.5 39.5 44.3 64.9 74.6 l7 8.3 0.3 -46.7 0.2 -46.6 53.3 0.3 c51.5 0.4 53.5 0.5 61.7 2.7 19.5 5.2 38.9 17.6 50.6 32.5 11.8 14.9 18.3 31.2 20.5 51.4 4.7 43.4 -15.4 82.5 -51.6 100.3 -14.3 7 -19.4 8.1 -42.2 8.6 l-20.3 0.5 0 38.4 0 38.4 -32.7 0 c-35.8 0 -39 -0.4 -48.6 -5.8 -3.5 -2 -7.8 -6 -13.2 -12.4 -4.4 -5.2 -14.2 -16.8 -21.9 -25.9 -7.6 -9 -21.8 -25.8 -31.5 -37.2 l-17.6 -20.8 -0.3 51 -0.2 51.1 -35 0 -35 0 0.2 -136.2z m51.8 26.4 l0 -91.9 -17 -19.6 c-9.4 -10.9 -17.3 -19.7 -17.7 -19.7 -0.3 0 -0.3 19.2 0.1 42.8 0.3 23.5 0.6 73.6 0.6 111.5 l0 68.7 17 0 17 0 0 -91.8z m154.4 90.6 c-0.5 -0.7 -13.2 -15.9 -28.4 -33.8 -15.2 -17.9 -36.1 -42.6 -46.5 -55 -10.4 -12.4 -23.6 -28.1 -29.4 -34.9 -5.8 -6.8 -15 -17.6 -20.5 -24 -5.4 -6.4 -10.2 -12 -10.7 -12.5 -0.5 -0.6 -0.9 8.4 -0.9 22 l0 22.9 13.6 16 c7.5 8.8 22.7 26.8 33.7 40 47.6 56.9 46.9 56.2 54.5 59 5.1 1.9 35.7 2.1 34.6 0.3z m3.3 -74.6 c-4.6 -5.4 -15.7 -18.5 -24.8 -29.2 -9 -10.7 -24.5 -29 -34.4 -40.6 -77.3 -90.5 -72.6 -85.3 -78.5 -88.2 -5.1 -2.5 -6.5 -2.7 -22.4 -3 l-16.9 -0.4 9.4 10.9 c5.2 6 16 18.6 24 27.9 29.6 34.4 62.4 73 96.4 113.4 19.2 22.8 39.4 46.8 44.9 53.2 l10.1 11.7 0.3 -23 0.2 -23.1 -8.3 -9.6z m60.3 -2.7 c23.9 -5.6 42.9 -20.8 54.1 -43.5 11.4 -23.1 10.8 -48.2 -1.6 -71.9 -9.9 -18.8 -28.8 -33.8 -50.5 -40.2 -6.9 -2 -10.3 -2.2 -39.9 -2.6 -28.5 -0.5 -32.2 -0.3 -31.5 1 0.5 0.8 7.8 9.2 16.2 18.5 l15.3 17 18.2 0.4 c17.3 0.3 18.5 0.4 23.9 3 7.1 3.3 15.3 10.8 18.3 16.8 4.5 8.8 5.8 15.5 5.3 26.4 -0.8 15.9 -5.5 25.7 -16.3 33.8 -9.2 7 -10.4 7.2 -44.7 7.6 l-30.7 0.3 14.2 17.4 14.2 17.3 14.5 0.1 c9.6 0 16.7 -0.4 21 -1.4z m-53.4 -77 c0.1 -13.7 -0.2 -26.9 -0.6 -29.2 -0.6 -3.5 -2.9 -6.5 -15.5 -20.5 -8.2 -8.9 -15.7 -17.2 -16.7 -18.3 -1.7 -1.9 -1.8 -0.7 -1.8 40.7 l0 42.7 4.3 5 4.2 5 13 -0.2 12.9 -0.2 0.2 -25z m44.6 23.9 c8.8 -3 16.5 -12.1 18.3 -21.6 1.1 -5.9 -1.9 -14.2 -7.1 -19.8 -2.5 -2.7 -6.1 -5.6 -8 -6.5 -5.2 -2.5 -14.1 -3.6 -22.1 -2.9 l-7.3 0.6 0 25.9 0 25.9 10.8 0 c7.2 0 12.4 -0.5 15.4 -1.6z"/>
 </g>
 <g fill="#ffffff">
  <path d="M0 193 l0 -193 193 0 193 0 0 193 0 193 -193 0 -193 0 0 -193z m88 82.9 c0 -33.5 0.4 -53.9 0.9 -53.7 1 0.3 21.5 24.1 47.6 55.2 34.6 41.3 36.9 43.8 42.2 46.8 9.4 5.3 13 5.8 45.6 5.8 l29.7 0 0 -38.4 0 -38.4 20.3 -0.5 c22.8 -0.5 27.9 -1.6 42.2 -8.6 53.6 -26.4 68.9 -98 31.1 -145.7 -11.7 -14.9 -31.2 -27.3 -50.6 -32.5 -8.2 -2.2 -10.4 -2.3 -58.7 -2.7 l-50.3 -0.3 -0.2 50.1 -0.3 50.2 -10 -11.8 c-35.2 -41.6 -63.8 -74.5 -67.9 -78.1 -9.9 -8.7 -20.3 -10.5 -59.6 -10.1 l-25.5 0.3 -0.3 133.3 -0.2 133.2 32 0 32 0 0 -54.1z"/>
  <path d="M36 257.3 c0 -33.5 -0.3 -86.4 -0.6 -117.7 -0.5 -44.7 -0.4 -56.8 0.6 -56.4 0.7 0.2 10.1 10.6 20.9 23 l19.6 22.7 -0.3 94.6 -0.2 94.5 -20 0 -20 0 0 -60.7z"/>
  <path d="M189.8 316.5 c-7.6 -2.8 -6.9 -2.1 -54.5 -59 -11 -13.2 -26.2 -31.2 -33.7 -40 l-13.6 -16 0 -28.8 c0 -15.9 0.4 -28.7 0.9 -28.5 1.1 0.4 30.5 34.9 69.1 80.8 11.8 14 34.2 40.5 49.7 58.8 15.6 18.3 28.3 33.4 28.3 33.7 0 0.3 -9.6 0.5 -21.2 0.4 -15.2 0 -22.3 -0.4 -25 -1.4z"/>
  <path d="M228.4 289.7 c-7.1 -8.4 -27.6 -32.5 -45.4 -53.7 -34.6 -41.1 -78.4 -92.7 -104.5 -122.9 -24.6 -28.5 -31.5 -36.7 -31.5 -37.6 0 -0.4 9.8 -0.5 21.8 -0.3 21.2 0.3 21.8 0.4 27.2 3 5.9 2.9 1.2 -2.3 78.5 88.2 9.9 11.6 25.4 29.9 34.4 40.6 9.1 10.7 20.2 23.8 24.8 29.1 l8.3 9.7 -0.2 29.5 -0.3 29.5 -13.1 -15.1z"/>
  <path d="M236.5 221.3 c-8.8 -10.8 -16.1 -19.9 -16.3 -20.4 -0.2 -0.4 14.4 -0.9 32.5 -1.1 36.6 -0.4 37.5 -0.6 46.8 -7.6 9.8 -7.4 15.2 -17.7 16.2 -30.7 1.3 -16.8 -8.2 -33.2 -23.5 -40.3 -5.4 -2.6 -6.6 -2.7 -23.9 -3 l-18.1 -0.4 -11.9 -13.1 c-19.5 -21.7 -25.3 -28.4 -25.3 -29.2 0 -0.4 17 -0.5 37.8 -0.2 35.3 0.4 38.2 0.5 45.2 2.6 22.2 6.5 40.8 21.6 50.9 41 19.8 38.4 8.2 86 -26.8 109.5 -14.5 9.7 -26.1 12.6 -50.1 12.5 l-17.5 0 -16 -19.6z"/>
  <path d="M204.3 182.9 l-4.3 -5 0 -48.4 c0 -26.7 0.2 -48.5 0.5 -48.5 0.5 0 0.9 0.5 24.2 26.2 l16 17.6 -0.1 31.4 -0.1 31.3 -16 0.2 -16 0.2 -4.2 -5z"/>
  <path d="M253 158.7 l0 -29.2 13.8 0 c17.3 0.1 20.9 1.2 28.4 8.5 4.6 4.5 6 6.6 7.3 11.4 3.5 11.9 0 24.6 -8.6 31.9 -6.4 5.5 -11.2 6.7 -27.1 6.7 l-13.8 0 0 -29.3z"/>
 </g>
</svg>