<?xml version="1.0" encoding="utf-8"?>
<!DOCTYPE svg PUBLIC "-//W3C//DTD SVG 1.0//EN" "http://www.w3.org/TR/2001/REC-SVG-20010904/DTD/svg10.dtd">
<svg version="1.0" xmlns="http://www.w3.org/2000/svg" width="690px" height="130px" viewBox="0 0 690 130" preserveAspectRatio="xMidYMid meet">
 <g fill="#1F4E2E">
  <path d="M0 65 l0 -65 345 0 345 0 0 65 0 65 -345 0 -345 0 0 -65z m109 42.5 c0 -1.4 -0.4 -2.5 -1 -2.5 -0.5 0 -1 1.1 -1 2.5 0 1.4 0.5 2.5 1 2.5 0.6 0 1 -1.1 1 -2.5z m155.5 -45.5 c0.3 -0.5 -0.3 -1 -1.4 -1 -4.2 0 -5.1 -2.5 -5.1 -13.6 l0 -10.4 3.6 0 c2.1 0 3.3 -0.4 2.9 -1 -0.3 -0.5 -1.9 -1 -3.6 -1 -2.7 0 -2.9 -0.2 -2.9 -4 0 -3.3 -0.3 -4 -2 -4 -1.7 0 -2 0.7 -2 4.5 0 4 -0.3 4.5 -2.2 4.6 -2.2 0.1 -2.2 0.1 0.2 0.8 2.4 0.7 2.5 1 2.2 7.9 -0.4 10.1 1.1 15 5.1 16.7 3.9 1.7 4.4 1.8 5.2 0.5z m52 0 c1.5 -0.6 0.6 -0.9 -3.3 -0.9 -4.5 -0.1 -5.8 -0.6 -8.3 -3 -2.5 -2.6 -2.9 -3.7 -2.9 -8.6 0 -3.3 0.7 -6.9 1.7 -8.8 1.5 -3 1.5 -3.1 -0.1 -1.8 -7.3 6.1 -5.2 18.1 3.9 22.2 4.4 2 6 2.2 9 0.9z m58.5 -1.1 c-5.4 -1.1 -7 -3.9 -7 -12.5 0 -6.2 0.3 -7.6 2.2 -9.4 1.3 -1.2 3.5 -2 5.5 -2 2 0 3.2 -0.4 2.8 -1 -1 -1.6 -4.5 -1.2 -8 1 -6.4 3.9 -8.2 13.8 -3.7 20 2.3 3.1 7.9 6.1 10.1 5.2 1.1 -0.4 0.6 -0.8 -1.9 -1.3z m-192.8 -10.1 c0.2 -6.2 0 -11.4 -0.4 -11.6 -0.5 -0.2 -0.8 -1.2 -0.8 -2.3 0 -1 -0.7 -1.9 -1.5 -1.9 -1.3 0 -1.5 2.2 -1.5 13.5 0 12.7 0.1 13.5 1.9 13.5 1.8 0 2 -0.9 2.3 -11.2z m20.8 0.6 c0 -10.3 -0.1 -10.6 -2.9 -13.5 -3 -2.9 -6.4 -3.7 -9.1 -1.9 -1.1 0.7 -0.6 1 2.1 1 5.4 0 5.9 1.1 5.9 13 0 10.8 0.3 12 2.7 12 1 0 1.3 -2.4 1.3 -10.6z m16.2 9.4 c-0.7 -0.7 -1.2 -3 -1.2 -5.2 -0.1 -3.8 -0.2 -4 -1.5 -2.2 -0.8 1.1 -1.5 2.3 -1.5 2.7 0 0.9 4 5.9 4.8 5.9 0.3 0 0.1 -0.5 -0.6 -1.2z m19.8 -7.3 c0 -8.5 -1.5 -14.5 -4 -16 -0.9 -0.5 -1 -0.1 -0.5 1.4 0.5 1.6 1.1 10.9 1.5 21.9 0 0.6 0.7 1.2 1.5 1.2 1.2 0 1.5 -1.6 1.5 -8.5z m44 -4 l0 -12.5 3.8 -0.2 3.7 -0.1 -3.7 -0.4 -3.8 -0.4 0 -5.4 c0 -5.8 1.3 -7.5 6.2 -7.5 2 -0.1 2.1 -0.2 0.6 -1.1 -1.2 -0.7 -2.5 -0.6 -4 0.2 -4.3 2.2 -5.7 4.1 -6.4 8.5 -0.5 3.8 -1 4.4 -3 4.4 -1.3 0 -2.4 0.5 -2.4 1 0 0.6 1.1 1 2.5 1 l2.5 0 0 12.5 c0 11.8 0.1 12.5 2 12.5 1.9 0 2 -0.7 2 -12.5z m61 3.8 c0 -5.7 0.5 -9.8 1.4 -11.5 1.2 -2.3 1.2 -2.8 0.2 -2.8 -0.8 0 -1.6 -0.9 -1.9 -2.1 -0.3 -1.2 -1.2 -1.9 -1.9 -1.7 -1 0.4 -1.4 3.8 -1.6 13.6 -0.2 12.7 -0.2 13.2 1.8 13.2 1.9 0 2 -0.6 2 -8.7z m48 -11.3 c0 -19.7 0 -20 -2.1 -20 -2.1 0 -2.1 0.3 -1.5 8 0.6 7 0.5 8 -0.9 8 -1.2 0 -1.4 0.4 -0.5 1.9 0.5 1.1 1 5 1 8.6 0 3.6 -0.5 7.5 -1 8.6 -0.7 1.3 -0.7 1.9 0 1.9 0.5 0 1 0.7 1 1.5 0 0.8 0.9 1.5 2 1.5 1.9 0 2 -0.7 2 -20z m-65.3 10.3 c1.7 -4.3 0.5 -8.8 -3.4 -12.4 l-2.6 -2.4 1.7 2.7 c1.4 2.1 1.7 4.4 1.4 9.7 -0.3 7.3 0.5 8 2.9 2.4z m-8.4 -16.1 c-1.1 -0.9 -3.4 -1.2 -6.1 -0.9 -7.2 0.8 -6.6 2.2 0.9 2.2 6 0 6.7 -0.2 5.2 -1.3z m-89 -0.9 c-1.3 -0.2 -3.3 -0.2 -4.5 0 -1.3 0.2 -0.3 0.4 2.2 0.4 2.5 0 3.5 -0.2 2.3 -0.4z m-196.3 -16.3 c0 -0.5 -0.7 -1 -1.5 -1 -0.8 0 -1.5 0.5 -1.5 1 0 0.6 0.7 1 1.5 1 0.8 0 1.5 -0.4 1.5 -1z"/>
 </g>
 <g fill="#f9f9f9">
  <path d="M286.1 115.1 c-4.6 -1.3 -3.7 -3.1 1.1 -2.5 3.4 0.5 4.8 0.2 6.1 -1.1 2.7 -2.7 2 -3.5 -2.6 -2.9 -3.9 0.6 -4.6 0.3 -6.5 -2.1 -2.8 -3.5 -2.8 -5.7 0.1 -9 1.5 -1.9 3.2 -2.7 5.2 -2.6 1.7 0 4.2 0.1 5.6 0.1 l2.6 0.1 -0.4 8.2 c-0.3 5.9 -0.9 8.7 -2.1 9.9 -2.1 2.1 -5.9 2.9 -9.1 1.9z m7.1 -9.8 c3.8 -3.5 1.4 -8.7 -3.9 -8.1 -3.8 0.4 -5.5 4.9 -2.8 7.8 2.2 2.4 4.2 2.5 6.7 0.3z"/>
  <path d="M381.3 115.3 c-1.3 -0.2 -2.3 -1.1 -2.3 -1.9 0 -1.1 0.9 -1.3 4 -0.8 4.1 0.7 7 -0.6 7 -3.1 0 -0.9 -1.1 -1.2 -4 -0.8 -6.8 0.9 -10.5 -4.7 -7 -10.5 1.9 -3.2 6.4 -4.9 8.4 -3.3 0.7 0.6 2.2 0.8 3.4 0.4 2.1 -0.5 2.2 -0.3 2.2 7.2 0 7.1 -0.2 7.9 -2.9 10.6 -2.9 2.8 -4.1 3.1 -8.8 2.2z m6.8 -9.3 c2.2 -1.2 2.6 -5.9 0.7 -7.8 -1.3 -1.3 -4.7 -1.6 -6.4 -0.4 -2.4 1.5 -2.6 5 -0.5 7.1 2.4 2.4 3.4 2.5 6.2 1.1z"/>
  <path d="M610.7 115.4 c-1 -1.1 0.3 -2.4 2.3 -2.4 2.3 0 3.5 -3.2 2.1 -5.8 -2.3 -4.3 -4.8 -12.2 -4.1 -12.7 0.5 -0.3 2.1 2.2 3.6 5.6 l2.8 6.2 2.4 -5.7 c1.4 -3.2 3.1 -5.6 3.9 -5.6 1.1 0 1.3 0.4 0.6 1.3 -0.5 0.6 -2.2 4.6 -3.8 8.7 -1.5 4.1 -3.5 8.3 -4.3 9.3 -1.5 1.7 -4.3 2.3 -5.5 1.1z"/>
  <path d="M175.7 114.3 c-0.4 -0.3 -0.7 -4.8 -0.7 -10 0 -9 0.1 -9.3 2.3 -9.2 1.2 0 3.4 -0.3 4.8 -0.6 4.1 -1 8.1 3 8.1 8 0 5.3 -3.1 7.9 -8.4 7.2 -3.6 -0.5 -3.8 -0.4 -3.8 2.4 0 2.8 -0.9 3.7 -2.3 2.2z m10.7 -7.9 c3.3 -3.3 1.2 -9.4 -3.2 -9.4 -3.5 0 -5.2 1.7 -5.2 5.1 0 3.2 2.3 5.9 5 5.9 1 0 2.6 -0.7 3.4 -1.6z"/>
  <path d="M27 64 l0 -49 13 0 c8.1 0 13.9 0.5 15.6 1.2 1.5 0.7 9 8.5 16.6 17.3 7.7 8.8 14.4 16.2 14.9 16.3 0.5 0.2 0.9 -7.2 0.9 -17.3 l0 -17.6 21.3 0.3 c20.1 0.3 21.4 0.4 26.2 2.7 13.6 6.8 20.4 19.1 19.3 35.2 -0.7 9.1 -4.3 16.3 -11.4 22.8 -6.6 6.1 -12.5 8.1 -23.6 8.1 l-7.8 0 0 14.6 0 14.6 -12.2 -0.4 c-7 -0.3 -13.5 -1 -15 -1.8 -1.5 -0.7 -9.3 -9.3 -17.4 -19.1 -8.2 -9.9 -15.1 -17.9 -15.6 -17.9 -0.4 0 -0.9 8.7 -1 19.3 l-0.3 19.2 -11.7 0.3 -11.8 0.3 0 -49.1z m19 9.4 l0 -34.7 -3.4 -4.1 c-1.9 -2.3 -5 -5.9 -7 -8.1 l-3.5 -4 -0.1 42.8 0 42.7 7 0 7 0 0 -34.6z m57.8 33.7 c-0.1 -0.5 -10.6 -13.2 -23.2 -28.1 -12.7 -15 -24.1 -28.7 -25.5 -30.6 -1.5 -1.8 -2.9 -3.3 -3.3 -3.4 -0.5 0 -0.8 4.7 -0.8 10.4 0 8.4 0.3 10.6 1.7 11.7 0.9 0.8 8.1 9.3 16.1 18.9 19.4 23.4 17.6 22 27.3 22 4.6 0 7.9 -0.4 7.7 -0.9z m3.2 -15.3 l0 -10.3 -11.4 -13.5 c-6.2 -7.4 -18 -21.1 -26.2 -30.5 -14.6 -16.6 -15.1 -17 -19.8 -17.8 -2.7 -0.4 -6.9 -0.7 -9.3 -0.5 l-4.5 0.3 9.7 11 c10.8 12.2 35.9 41.7 54.2 63.8 3.6 4.2 6.7 7.7 6.9 7.7 0.2 0 0.4 -4.6 0.4 -10.2z m25.7 -14.4 c5.6 -2.3 13 -10.1 15.3 -16 2.4 -6.6 2.6 -16.2 0.4 -22.7 -2.1 -6.3 -8.3 -13 -15.2 -16.4 -5.3 -2.6 -6.7 -2.8 -20.4 -3.2 -8.2 -0.2 -14.8 0 -14.8 0.4 0 0.3 2.8 3.8 6.3 7.6 l6.2 6.9 6.3 0 c3.4 0 7.7 0.6 9.5 1.4 10.6 4.5 12.4 18.7 3.3 26 -3.7 3 -4.1 3.1 -16.8 3.6 l-13.1 0.5 5.7 6.7 c4.4 5.1 6.5 6.8 8.9 7.1 4.8 0.7 14.8 -0.3 18.4 -1.9z m-25.7 -29 l0 -11.6 -6.7 -7.4 c-3.6 -4.1 -7 -7.4 -7.5 -7.4 -1.2 0 -1 31.2 0.3 34.9 1.1 3 1.2 3.1 7.5 3.1 l6.4 0 0 -11.6z m18.4 10.5 c2.7 -1.2 5.6 -6.4 5.6 -9.8 0 -6.4 -4.9 -10.1 -13.5 -10.1 l-5.5 0 0 10.5 0 10.5 5.5 0 c3 0 6.5 -0.5 7.9 -1.1z"/>
  <path d="M301.8 110.5 c0.4 -2.5 1.9 -4.1 2.8 -3.2 0.7 0.7 -1.4 5.7 -2.4 5.7 -0.5 0 -0.7 -1.1 -0.4 -2.5z"/>
  <path d="M415 112.3 c0 -1.4 1.9 -3.8 2.5 -3.2 0.8 0.8 -0.5 3.9 -1.6 3.9 -0.5 0 -0.9 -0.3 -0.9 -0.7z"/>
  <path d="M195.7 109.4 c-0.4 -0.4 -0.7 -5.4 -0.7 -11.1 0 -7.9 0.3 -10.4 1.3 -10.1 0.8 0.3 1.3 3.5 1.5 10.3 0.3 9.1 -0.4 12.5 -2.1 10.9z"/>
  <path d="M203.2 108.8 c-3.2 -3.2 0 -7.8 5.4 -7.8 2.8 0 3.5 -0.4 3.2 -1.7 -0.2 -1.3 -1.3 -1.8 -3.8 -1.9 -4.5 -0.1 -5.1 -1.6 -1.1 -2.8 2.3 -0.7 3.7 -0.5 5.6 0.8 2.2 1.5 2.5 2.3 2.5 7.9 l0 6.3 -5.3 0.2 c-3.1 0.1 -5.8 -0.3 -6.5 -1z m8.2 -2.4 c2.4 -2.4 1.9 -3.4 -1.8 -3.4 -3.9 0 -6.2 2 -4.4 3.8 1.7 1.7 4.4 1.5 6.2 -0.4z"/>
  <path d="M220.8 109.4 c-1.1 -1.1 -1 -14.2 0.1 -14.9 0.5 -0.3 1.2 -0.1 1.6 0.4 0.4 0.7 1.4 0.6 3 -0.1 1.9 -0.9 2.9 -0.7 5 0.6 2.2 1.5 2.5 2.3 2.5 8.1 0 3.6 -0.4 6.5 -0.8 6.5 -0.5 0 -1.3 -2.8 -1.8 -6.2 -0.7 -5.3 -1.2 -6.3 -3 -6.6 -2.9 -0.4 -4.2 1.6 -5.1 7.7 -0.5 2.9 -1.1 4.9 -1.5 4.5z"/>
  <path d="M238 102.5 c0 -7.1 0.1 -7.5 2.3 -7.4 1.2 0 3.1 -0.2 4.3 -0.6 2.5 -0.8 6.2 2.1 6.5 5 0.4 4.8 -0.2 10.5 -1.1 10.5 -0.5 0 -1 -2.5 -1.2 -5.6 -0.3 -6.4 -2.3 -8.8 -5.5 -6.8 -1.3 0.8 -1.9 2.7 -2.1 6.8 -0.2 4.1 -0.7 5.6 -1.7 5.6 -1.2 0 -1.5 -1.6 -1.5 -7.5z"/>
  <path d="M265 102 c0 -4.7 0.4 -8 1 -8 0.6 0 1 0.4 1 0.9 0 0.5 1.3 0.4 2.9 -0.2 2.3 -0.9 3.4 -0.7 5.5 0.6 2.4 1.6 2.6 2.4 2.6 8.2 0 3.7 -0.4 6.5 -1 6.5 -0.5 0 -1 -1.9 -1 -4.2 0 -4.4 -1.7 -8.9 -3.5 -9.5 -0.6 -0.2 -1.9 0.2 -2.8 1 -1.7 1.2 -2.5 4.1 -2.6 10 -0.1 1.5 -0.5 2.7 -1.1 2.7 -0.6 0 -1 -3.3 -1 -8z"/>
  <path d="M319 107.3 c-2.7 -3.5 -2.1 -7.9 1.6 -11.1 2.6 -2.2 3.7 -2.3 7.7 -0.7 1.4 0.6 1.7 0.1 1.7 -3.4 0 -2.3 0.5 -4.1 1 -4.1 1.1 0 1.2 0.9 1.4 13.1 l0.1 8.6 -5.7 0.1 c-5.1 0.2 -5.9 -0.1 -7.8 -2.5z m9.5 -0.9 c2 -2 1.6 -7.3 -0.6 -8.7 -2.6 -1.6 -6.8 0 -7.5 2.9 -1.5 5.9 4 9.8 8.1 5.8z"/>
  <path d="M339.1 107.4 c-2.4 -3 -2.6 -5.5 -1 -8.7 1.6 -3 2.8 -3.7 6.5 -3.7 3.5 0 6.4 2.6 6.4 5.8 0 2 -0.5 2.2 -5.5 2.2 -4 0 -5.5 0.4 -5.5 1.4 0 2.6 2.8 3.8 7.2 3.1 4 -0.5 4.2 -0.5 2.4 1 -3.2 2.4 -8.1 1.9 -10.5 -1.1z m9.2 -7.1 c1.1 -1.1 -1.4 -3.3 -3.7 -3.3 -2.2 0 -4.6 1.7 -4.6 3.2 0 1 7.4 1.1 8.3 0.1z"/>
  <path d="M355.7 109.3 c-1.6 -1.5 -0.5 -2.2 2.9 -2 5 0.3 5.6 -1.9 1.1 -3.8 -6.5 -2.7 -5.7 -8.9 1 -8.3 3.8 0.3 4.1 2.2 0.3 2.2 -3.6 0.1 -3.1 2.3 1 4.4 6.1 3 4.8 8.2 -2 8.2 -2 0 -4 -0.3 -4.3 -0.7z"/>
  <path d="M398 102.6 c0 -8.2 -0.8 -7.4 7.7 -7.7 3.8 -0.1 5.3 2.5 5.3 9.3 0 6.3 -1.9 8.2 -2.1 2.1 -0.2 -8.4 -2.9 -11.4 -7 -7.7 -1.4 1.2 -1.9 3 -1.9 6.6 0 2.6 -0.4 4.8 -1 4.8 -0.6 0 -1 -3.1 -1 -7.4z"/>
  <path d="M433.1 107.4 c-2.7 -3.4 -2.6 -4 0.3 -6.9 2.2 -2.2 2.3 -2.8 1.3 -5.4 -1.4 -3.7 0.3 -6.1 4.2 -6.1 4.9 0 6.8 4.5 3.5 8.1 -1.4 1.6 -1.4 2 -0.1 3.9 l1.5 2.2 1.2 -2.2 c0.9 -1.6 1.5 -1.9 2.3 -1.1 0.7 0.7 0.6 1.6 -0.6 2.9 -1.6 1.7 -1.6 2 -0.2 3.2 1.6 1.3 2.1 4 0.7 4 -0.4 0 -1.3 -0.5 -1.9 -1.1 -0.8 -0.8 -1.7 -0.8 -3.1 0 -3.5 1.9 -6.9 1.3 -9.1 -1.5z m7.9 -0.9 c1.1 -1.3 0.9 -2 -1 -4 -2.5 -2.6 -4.6 -2.4 -5.6 0.8 -0.4 1.4 -0.1 2.5 1.2 3.4 2.3 1.7 3.9 1.6 5.4 -0.2z m0.4 -12.1 c0.8 -2.1 -0.1 -3.4 -2.5 -3.4 -1.2 0 -1.9 0.7 -1.9 1.8 0 3.4 3.3 4.5 4.4 1.6z"/>
  <path d="M461 107.9 c-1.8 -3.2 1 -6.7 5.7 -7.1 5.3 -0.4 5.3 -3.3 0.1 -3.4 -4.9 -0.1 -5.8 -1.1 -2.3 -2.4 6 -2.3 9.5 1 9.5 8.9 l0 5.7 -6 0.2 c-5.1 0.1 -6.1 -0.1 -7 -1.9z m8.8 -1.1 c2.1 -2.1 1.4 -3.8 -1.5 -3.8 -3.7 0 -5.7 1.4 -5 3.4 0.7 1.9 4.8 2.1 6.5 0.4z"/>
  <path d="M480 108 c-2.6 -2.6 -2.6 -8 0 -10.8 4.2 -4.4 12 -1.8 12 4 0 1.5 -0.9 1.8 -5.5 1.8 -4 0 -5.5 0.4 -5.5 1.4 0 2.5 2.8 3.9 6.5 3.2 3.5 -0.7 4.9 0.6 1.9 1.8 -3.1 1.2 -7.4 0.6 -9.4 -1.4z m8.8 -8.7 c-0.4 -2.2 -4.4 -2.9 -6.4 -1.3 -2.4 2.1 -1.6 3 2.7 3 3.3 0 4 -0.3 3.7 -1.7z"/>
  <path d="M496.9 107.3 c0 -1.6 -0.2 -4.9 -0.4 -7.5 -0.3 -3.6 0 -4.8 1.1 -4.8 0.8 0 1.4 0.5 1.4 1 0 0.6 1.1 0.3 2.4 -0.5 3.5 -2.3 4 -0.2 0.6 2.4 -2.6 1.9 -3 2.8 -3 7.1 0 5.1 -1.9 7.2 -2.1 2.3z"/>
  <path d="M517.2 108.8 c-1.5 -1.5 -1.5 -5.1 0 -6.6 0.7 -0.7 2.9 -1.2 5 -1.2 2.7 0 3.8 -0.4 3.8 -1.5 0 -1.8 -4 -2.9 -7 -2 -3.3 1.1 -2 -1.8 1.3 -2.9 2.2 -0.8 3.3 -0.6 5.5 1.1 2.3 1.7 2.7 2.8 3 8 l0.3 5.9 -5.4 0.2 c-3 0.1 -5.9 -0.4 -6.5 -1z m7.2 -1.4 c0.9 -0.3 1.6 -1.5 1.6 -2.5 0 -1.4 -0.7 -1.9 -2.9 -1.9 -3.3 0 -4.6 1.3 -3.7 3.5 0.6 1.6 2.4 1.9 5 0.9z"/>
  <path d="M534 99 c0 -6.7 0.4 -11 1 -11 0.6 0 1 4.3 1 11 0 6.7 -0.4 11 -1 11 -0.6 0 -1 -4.3 -1 -11z"/>
  <path d="M550 108.1 c-2.3 -4.4 -0.1 -7.1 5.8 -7.1 1.6 0 3.2 -0.3 3.5 -0.7 1.3 -1.3 -1.6 -3.3 -4.9 -3.3 -4.1 0 -4.5 -1.7 -0.7 -2.6 1.6 -0.4 3.7 -0.2 5.2 0.7 2.3 1.3 2.6 2.2 2.9 8 l0.3 6.5 -5.5 0.2 c-4.6 0.2 -5.7 -0.1 -6.6 -1.7z m8.1 -1.1 c3.2 -1.8 2.3 -4 -1.5 -4 -3.7 0 -5.1 1.2 -4.2 3.5 0.6 1.8 2.9 1.9 5.7 0.5z"/>
  <path d="M567.5 103.5 c-0.7 -6.6 -0.2 -8.9 1.8 -8.2 0.7 0.2 2 0 3 -0.5 2.2 -1.2 7.3 0.6 8.1 2.9 0.8 2.1 -0.5 12.6 -1.5 11.6 -0.4 -0.4 -0.9 -3.3 -1.1 -6.3 -0.3 -4.9 -0.6 -5.5 -2.6 -5.8 -3.7 -0.5 -5.2 1.5 -5.2 6.9 0 7.2 -1.7 6.8 -2.5 -0.6z"/>
  <path d="M586.2 108.8 c-1.6 -1.6 -1.5 -5.5 0 -6.4 0.7 -0.4 2.8 -1 4.8 -1.4 5.2 -0.8 4.6 -3.4 -1 -4 -4.2 -0.5 -4.3 -0.6 -2.3 -1.8 3.2 -1.8 5.1 -1.5 7.8 1.3 2 1.9 2.5 3.4 2.5 7.7 l0 5.4 -5.3 0.2 c-3.1 0.1 -5.8 -0.3 -6.5 -1z m7.2 -1.4 c0.9 -0.3 1.6 -1.5 1.6 -2.5 0 -1.4 -0.7 -1.9 -2.8 -1.9 -3.2 0 -5.3 1.6 -4.5 3.6 0.5 1.5 3.1 1.8 5.7 0.8z"/>
  <path d="M603 99.1 c0 -8.8 0.3 -11.1 1.4 -11.1 1.1 0 1.3 2 1.1 10.7 -0.5 14.8 -2.5 15.1 -2.5 0.4z"/>
  <path d="M628.1 109.1 c-0.7 -0.5 -1 -1.4 -0.6 -2 0.5 -0.9 1 -0.9 2 -0.1 1.8 1.5 6 0.9 6 -0.9 0 -0.7 -1.6 -2.1 -3.5 -3 -4.5 -2.1 -5.5 -6.7 -1.7 -7.6 3.2 -0.8 6.8 -0.3 6.7 1 0 0.5 -1.4 0.8 -3 0.7 -4.4 -0.5 -3.9 2.4 0.7 4.5 4.2 2 5.2 4.3 2.8 6.7 -1.8 1.7 -7.1 2.1 -9.4 0.7z"/>
  <path d="M643.6 109.3 c-1.2 -1.2 -0.6 -4.3 0.9 -4.3 0.8 0 1.5 0.9 1.5 1.9 0 2.1 -1.3 3.4 -2.4 2.4z"/>
  <path d="M650.5 109 c-1.2 -1.9 0.5 -3 3 -1.8 2.6 1.2 5.5 0.5 5.5 -1.2 0 -0.6 -1.5 -1.7 -3.3 -2.5 -4.1 -1.7 -5.9 -3.7 -5.2 -5.7 0.8 -2.1 4.6 -3.6 7.3 -2.9 3 0.8 2.4 2.6 -0.8 2.6 -3.9 0 -3.7 1.8 0.3 4 4.5 2.4 5.3 4.2 3.1 6.6 -1.8 2.1 -8.8 2.7 -9.9 0.9z"/>
  <path d="M257 89.5 c0 -0.8 0.7 -1.5 1.5 -1.5 0.8 0 1.5 0.7 1.5 1.5 0 0.8 -0.7 1.5 -1.5 1.5 -0.8 0 -1.5 -0.7 -1.5 -1.5z"/>
  <path d="M371 89.5 c0 -0.8 0.5 -1.5 1 -1.5 0.6 0 1 0.7 1 1.5 0 0.8 -0.4 1.5 -1 1.5 -0.5 0 -1 -0.7 -1 -1.5z"/>
  <path d="M508.7 90.4 c-0.8 -0.8 0.1 -2.4 1.4 -2.4 0.5 0 0.9 0.7 0.9 1.5 0 1.5 -1.2 2 -2.3 0.9z"/>
  <path d="M643 89.4 c0 -1.7 2.2 -1.4 2.8 0.4 0.2 0.7 -0.3 1.2 -1.2 1.2 -0.9 0 -1.6 -0.7 -1.6 -1.6z"/>
  <path d="M404.9 77.1 c-0.2 -0.6 -0.3 -10.8 -0.1 -22.6 l0.3 -21.5 2.9 0 c2.4 0 3 0.4 3.1 2.3 0 1.2 0.3 1.6 0.6 0.9 0.8 -2.1 5.9 -4.2 10.1 -4.2 8.4 0 14.2 7.1 14.2 17.5 0 9.7 -5.8 16.5 -14.2 16.5 -3.9 0 -8.8 -1.8 -8.8 -3.2 0 -0.4 -0.4 -0.8 -1 -0.8 -0.6 0 -1 3.2 -1 7.5 0 5.8 -0.3 7.5 -1.4 7.5 -0.8 0 -2.1 0.3 -2.9 0.6 -0.8 0.3 -1.6 0.1 -1.8 -0.5z m19.4 -17.2 c3.2 -1.5 5.7 -6 5.7 -10.4 0 -10.7 -9.4 -16.3 -16.1 -9.6 -2.7 2.8 -3.4 5.2 -3 10.6 0.7 7.9 7 12.3 13.4 9.4z"/>
  <path d="M635.4 76.6 c-4 -1.7 -4.8 -3 -3.5 -5.5 1 -1.9 1.1 -1.9 4.8 0 9.2 4.7 18.3 0.1 18.3 -9.3 0 -1.9 -0.1 -1.9 -3.4 0.1 -4.6 2.9 -12.4 2.9 -16.1 -0.1 -1.5 -1.2 -3.6 -4 -4.6 -6.2 -6.7 -14.8 7.8 -29.8 20.5 -21.1 3.4 2.3 3.6 2.3 3.6 0.5 0 -1.6 0.7 -2 3.1 -2 l3.1 0 -0.4 17.3 c-0.3 19.2 -1.2 22.1 -7.1 25.7 -3.8 2.4 -13.5 2.6 -18.3 0.6z m14.5 -19.1 c6.1 -3.1 6.7 -12.8 1.1 -17.7 -1.8 -1.7 -4.2 -2.8 -5.9 -2.8 -6.5 0 -11.7 8.6 -9.1 15 2.6 6.3 8.2 8.5 13.9 5.5z"/>
  <path d="M214.9 63.1 c-2.2 -2.2 -2.9 -3.9 -2.9 -6.8 0 -7.2 5.4 -11.3 15 -11.3 5.4 0 6.5 -1.4 3.4 -4.4 -1.9 -1.9 -2.8 -2 -8.6 -0.2 -4.5 1.3 -4.6 1.3 -5.7 -1.1 -1.6 -3.5 -1.4 -4.1 2 -5.9 4.2 -2.1 13.7 -2.1 17.8 0.1 4.9 2.5 6.1 6.6 6.1 20 l0 11.5 -4.5 0 c-3.3 0 -4.5 -0.4 -4.5 -1.5 0 -1.2 -0.6 -1.1 -3.2 0.5 -5.1 3.1 -11.3 2.7 -14.9 -0.9z m14.7 -4.9 c1.3 -0.8 3.4 -4.6 3.4 -6.1 0 -1.7 -7.3 -1.3 -9.8 0.5 -2.5 1.7 -2.8 3.4 -1 5.2 1.3 1.3 5.7 1.6 7.4 0.4z"/>
  <path d="M256.3 64.5 c-4 -1.7 -5.5 -6.7 -5.2 -16.8 0.2 -6.7 0.1 -7.2 -1.9 -7.5 -1.8 -0.3 -2.2 -1 -2.2 -4.3 0 -3.6 0.2 -4 2 -3.4 1.8 0.6 2 0.2 2 -3.9 l0 -4.6 5 0 5 0 0 3.9 c0 3.7 0.2 4 3.3 4.3 2.9 0.3 3.2 0.6 3.5 4.1 0.3 3.6 0.3 3.7 -3.2 3.7 l-3.6 0 0 7.3 c0 8.4 0.8 10.1 4.7 10.2 2.3 0 2.9 0.5 3.1 2.8 0.2 1.6 -0.2 3.5 -0.9 4.3 -1.5 1.8 -7.4 1.8 -11.6 -0.1z"/>
  <path d="M304 63.8 c-5.6 -2.9 -8.5 -8.2 -8.4 -15.3 0.2 -8.8 4.4 -14.1 13.2 -16.4 11 -3 22.2 5.3 22.2 16.3 0 13.5 -14.5 21.7 -27 15.4z m14.5 -8.3 c1.9 -1.8 2.5 -3.5 2.5 -6.5 0 -9 -10.6 -12.6 -14.5 -4.9 -2.3 4.3 -1.8 7.7 1.4 11 3.6 3.6 7.3 3.7 10.6 0.4z"/>
  <path d="M369.1 64.2 c-5.4 -2.7 -7.4 -6.3 -7.9 -13.8 -0.8 -11.8 4.4 -18.4 14.4 -18.4 2.7 0 5.8 0.7 6.8 1.5 1.1 0.8 2.2 1.5 2.5 1.5 0.3 0 0.6 -3.7 0.6 -8.2 l0 -8.3 4.5 0 4.5 0 0.3 23.3 0.2 23.2 -5 0 c-3.8 0 -5 -0.4 -5 -1.5 0 -1.2 -0.6 -1.1 -3.2 0.5 -4.1 2.5 -8.2 2.5 -12.7 0.2z m13.4 -8.7 c3.3 -3.2 3.5 -10.5 0.5 -13.5 -2.6 -2.6 -7 -2.6 -9.8 0 -3.2 3 -3.1 10.2 0.3 13.5 1.3 1.4 3.4 2.5 4.5 2.5 1.2 0 3.2 -1.1 4.5 -2.5z"/>
  <path d="M466 64.9 c-6.1 -2.4 -7.8 -9.6 -3.5 -14.7 2.7 -3.3 5.5 -4.2 13.7 -4.6 5 -0.3 5.3 -0.5 5 -2.7 -0.4 -3 -3.7 -5.9 -6.6 -5.9 -1.1 0.1 -3.9 0.7 -6.1 1.5 -3 1.1 -4.1 1.1 -4.7 0.2 -3.4 -5.3 10.9 -9 18 -4.7 4.4 2.7 5 4.8 5.3 18.6 l0.3 11.9 -2.7 0.3 c-1.8 0.2 -2.7 -0.1 -2.7 -1.1 0 -1.2 -0.7 -1.1 -3.7 0.4 -4 2.1 -8.4 2.3 -12.3 0.8z m11.4 -5 c2.3 -1.1 4.6 -5.3 4.6 -8.7 0 -2.2 -11.3 -1.2 -14 1.3 -5.5 4.9 1.9 10.8 9.4 7.4z"/>
  <path d="M175 48.5 l0 -16.5 4.5 0 c3.9 0 4.5 0.3 4.5 2.1 l0 2 2.6 -2 c5.5 -4.3 13.3 -3.6 17.4 1.7 1.8 2.2 2 4.1 2 15.9 l0 13.4 -4.7 -0.3 -4.8 -0.3 -0.3 -10.9 c-0.1 -6.1 -0.8 -11.6 -1.4 -12.3 -0.6 -0.7 -2.3 -1.3 -3.9 -1.3 -4.7 0 -5.9 3 -5.9 14.7 l0 10.3 -5 0 -5 0 0 -16.5z"/>
  <path d="M276 52.5 l0 -12.5 -2.5 0 c-2.2 0 -2.5 -0.4 -2.5 -4 0 -3.5 0.3 -4 2.3 -4 2 0 2.5 -0.7 3.3 -4.7 0.7 -3.8 1.6 -5.2 4.3 -7 3.3 -2.2 8.3 -2.9 11.5 -1.7 1.1 0.4 1.6 1.9 1.6 4.6 0 3.5 -0.2 3.9 -2 3.3 -2.8 -0.9 -6 1.2 -6 4 0 2.2 0.3 2.3 3.5 1.8 l3.5 -0.6 0 4.2 c0 4 -0.1 4.1 -3.5 4.1 l-3.5 0 0 12.5 0 12.5 -5 0 -5 0 0 -12.5z"/>
  <path d="M337.2 48.8 l0.3 -16.3 4.3 -0.3 c3.7 -0.3 4.4 0 4.9 1.7 0.5 2 0.5 2 3.2 0.1 1.4 -1 3.7 -2 5.1 -2.2 2.3 -0.3 2.5 0 2.8 4.5 0.3 4.6 0.3 4.7 -2.6 4.7 -1.7 0 -4 0.9 -5.3 1.9 -2.2 1.7 -2.4 2.8 -2.7 12 l-0.4 10.1 -4.9 0 -4.9 0 0.2 -16.2z"/>
  <path d="M445.8 64.3 c-0.3 -0.4 -0.2 -10.8 0 -23 l0.4 -22.3 2.9 0 2.9 0 -0.2 22.8 -0.3 22.7 -2.7 0.3 c-1.4 0.2 -2.8 0 -3 -0.5z"/>
  <path d="M498 49 l0 -16 3 0 c2.1 0 3 0.5 3 1.7 0 1.4 0.2 1.4 2 -0.2 2.9 -2.6 11.3 -3.2 14.6 -1 4.2 2.7 5.4 7.2 5.4 20 l0 11.5 -3 0 -3 0 0 -11.5 c0 -11 -0.1 -11.7 -2.5 -14 -3.3 -3.3 -7 -3.2 -10.6 0.4 -2.9 2.9 -2.9 3.1 -2.9 14 l0 11.1 -3 0 -3 0 0 -16z"/>
  <path d="M537 49.1 c0 -15.4 0.1 -15.9 2.2 -16.4 2.6 -0.7 3.8 -0.1 3.8 2 0 1.4 0.2 1.4 2 -0.2 2.8 -2.5 9.9 -3.1 13.9 -1 4.9 2.5 6.1 6.5 6.1 20 l0 11.6 -3.1 -0.3 -3.2 -0.3 0.2 -9.5 c0.1 -5.2 -0.2 -10.8 -0.7 -12.5 -1.6 -5.8 -8.6 -7.1 -13.2 -2.5 -1.8 1.8 -2 3.4 -2 13.5 l0 11.5 -3 0 -3 0 0 -15.9z"/>
  <path d="M575.5 63.8 c-0.3 -0.8 -0.4 -7.9 -0.3 -15.8 l0.3 -14.5 2.8 0 2.7 0 0.3 15.5 0.2 15.5 -2.8 0.3 c-1.6 0.2 -2.9 -0.2 -3.2 -1z"/>
  <path d="M592.9 64.6 c-0.2 -0.2 -0.3 -7.4 -0.1 -16 l0.3 -15.6 2.9 0 c2.1 0 3 0.5 3 1.6 0 1.3 0.5 1.2 2.6 -0.5 5.1 -4 14.7 -2.1 17.2 3.4 0.7 1.6 1.2 7.5 1.2 15 l0 12.5 -3 0 -3 0 0 -11.6 c0 -6.3 -0.4 -12.4 -1 -13.4 -2.2 -4.2 -10.7 -3.2 -12.9 1.6 -0.6 1.4 -1.1 7.2 -1.1 12.9 l0 10.5 -2.8 0 c-1.6 0 -3.1 -0.2 -3.3 -0.4z"/>
  <path d="M575 23 c0 -2.8 0.3 -3 3.5 -3 3.2 0 3.5 0.2 3.5 3 0 2.8 -0.3 3 -3.5 3 -3.2 0 -3.5 -0.2 -3.5 -3z"/>
 </g>
</svg>