<?xml version="1.0" encoding="utf-8"?>
<!DOCTYPE svg PUBLIC "-//W3C//DTD SVG 1.0//EN" "http://www.w3.org/TR/2001/REC-SVG-20010904/DTD/svg10.dtd">
<svg version="1.0" xmlns="http://www.w3.org/2000/svg" width="692px" height="130px" viewBox="0 0 692 130" preserveAspectRatio="xMidYMid meet">
 <g fill="#ffffff">
  <path d="M0 65 l0 -65 346 0 346 0 0 65 0 65 -346 0 -346 0 0 -65z m264 -3.8 c-4.6 -0.7 -5 -1.8 -5 -13.3 l0 -10.9 3.3 -0.2 3.2 -0.1 -3.2 -0.4 c-3.2 -0.4 -3.3 -0.6 -3.3 -4.9 0 -3.8 -0.3 -4.5 -1.7 -4.2 -1.3 0.2 -1.9 1.5 -2.1 4.5 -0.3 3.4 -0.7 4.3 -2.5 4.6 -1.8 0.4 -1.7 0.5 0.6 0.6 l2.7 0.1 0 10.3 c0.1 6.8 0.5 10.8 1.4 11.9 1.6 2.2 5.6 3.7 7.6 2.9 1 -0.4 0.7 -0.7 -1 -0.9z m53.5 0.8 c1.4 -0.6 0.5 -0.9 -3.5 -0.9 -4 0 -4.9 0.3 -3.5 0.9 1.1 0.5 2.7 0.9 3.5 0.9 0.8 0 2.4 -0.4 3.5 -0.9z m61 0 c1.6 -0.7 1.3 -0.9 -1.7 -0.9 -4.3 -0.1 -7.4 -2.6 -8.4 -6.6 -1.1 -4.5 0.1 -13.3 2.2 -15.7 l1.9 -2.3 -2.6 2.3 c-3.9 3.4 -5.4 9 -3.9 13.8 1.4 4.3 4.5 8.2 7.5 9.4 2.5 1.1 2.5 1.1 5 0z m-195.5 -11.8 c0.3 -6.1 0.2 -11.2 -0.2 -11.2 -0.5 0 -0.8 -0.9 -0.8 -2.1 0 -1.2 -0.5 -1.9 -1.2 -1.7 -0.9 0.3 -1.4 4.2 -1.6 13.7 -0.2 12.3 -0.1 13.2 1.5 12.9 1.6 -0.3 1.9 -1.8 2.3 -11.6z m21 2.3 c0 -5.2 -0.5 -10.5 -1.1 -11.9 -1.6 -3.5 -7 -6.2 -9.5 -4.8 -1.6 1 -1.4 1.1 1.9 1.2 4.9 0 5.7 2.1 5.7 15.1 0 8.1 0.3 9.9 1.5 9.9 1.2 0 1.5 -1.7 1.5 -9.5z m36 2.3 c0 -4 -0.6 -9.1 -1.3 -11.3 -1.2 -3.9 -1.2 -3.8 -1.7 5.5 -0.6 10.9 -0.3 13 1.6 13 1.1 0 1.4 -1.7 1.4 -7.2z m44 -11.1 c0 -19.9 0.2 -20.6 5.5 -20.8 2.5 0 2.7 -0.2 1 -0.8 -2.4 -1 -7 1.1 -8.4 3.8 -0.6 1 -1.3 3.7 -1.7 6 -0.6 3.5 -1 4.1 -3.3 4.2 l-2.6 0.2 2.8 0.4 2.7 0.4 0 12.5 c0 11.7 0.1 12.4 2 12.4 1.9 0 2 -0.7 2 -18.3z m61 9.2 c0 -5 0.5 -9.9 1 -11 0.7 -1.3 0.7 -1.9 0 -1.9 -0.5 0 -1 -0.9 -1 -2 0 -1.1 -0.7 -2 -1.5 -2 -1.3 0 -1.5 2.1 -1.5 13 0 10.9 0.2 13 1.5 13 1.2 0 1.5 -1.7 1.5 -9.1z m48 -10.9 c0 -17.1 -0.2 -20 -1.5 -20 -1.2 0 -1.5 1.5 -1.5 7.5 0 5.6 -0.4 7.7 -1.4 8.1 -1.2 0.5 -1.2 0.9 0 3.2 1.8 3.5 1.8 14.2 0 16.8 -1.7 2.2 -0.4 4.4 2.5 4.4 1.8 0 1.9 -1.1 1.9 -20z m-174.2 11.8 l-0.3 -2.3 -1.3 2.2 c-1 1.8 -1 2.7 0 4.3 l1.3 2.1 0.3 -2.1 c0.2 -1.1 0.2 -3 0 -4.2z m108.2 -0.3 c2 -4.2 2 -4.4 0.3 -8.2 l-1.7 -3.8 -0.6 7.6 c-0.3 4.5 -1.1 8.4 -2 9.5 -1.4 1.7 -1.4 1.8 0.2 0.6 0.9 -0.8 2.6 -3.3 3.8 -5.7z m-23.8 -4 c-0.4 -7.8 -1.6 -9.1 -2.8 -2.9 -0.4 2.5 -0.1 4.7 1 7 0.8 1.9 1.7 3.4 1.8 3.4 0.2 0 0.2 -3.4 0 -7.5z m75.2 -13.7 c-1.5 -0.7 -2.8 -0.7 -4 0.1 -1.6 0.9 -1.2 1 2.1 1 3.5 0 3.7 -0.2 1.9 -1.1z m-62.6 -0.5 c-1 -0.2 -2.6 -0.2 -3.5 0 -1 0.3 -0.2 0.5 1.7 0.5 1.9 0 2.7 -0.2 1.8 -0.5z"/>
 </g>
 <g fill="#444f54">
  <path d="M176.7 115.3 c-0.3 -0.6 -0.2 -16.6 0.2 -20.7 0.1 -0.5 0.7 -0.3 1.5 0.3 1 0.8 2.1 0.9 3.3 0.3 3.1 -1.5 6.7 0.1 8.6 3.9 3.1 6.4 -0.9 11.7 -7.9 10.6 -3.3 -0.6 -3.4 -0.5 -3.4 2.9 0 3.1 -1.2 4.5 -2.3 2.7z m11.4 -9.7 c2.4 -5.1 -1.1 -9.7 -6.1 -8.1 -2.5 0.8 -3.6 4.9 -2.1 8.1 0.8 1.8 1.8 2.4 4.1 2.4 2.3 0 3.3 -0.6 4.1 -2.4z"/>
  <path d="M286.3 114.8 c-3.7 -1.8 -2.6 -2.8 2.2 -2.1 4.9 0.6 7.5 -0.7 7.5 -3.9 0 -1.5 -0.3 -1.7 -1.9 -0.8 -5.1 2.7 -10.4 -0.4 -10.4 -6 0 -5.5 5.7 -9.3 9.9 -6.5 1.3 0.8 2.4 1.1 2.4 0.5 0 -0.5 0.5 -1 1 -1 0.6 0 1 3.3 1 8 0 7.3 -0.3 8.3 -2.5 10.5 -2.6 2.7 -5.6 3.1 -9.2 1.3z m7.8 -8.8 c2.3 -1.3 2.6 -6.2 0.5 -7.9 -4.6 -3.8 -11.1 2.5 -7.1 6.9 2 2.2 3.7 2.5 6.6 1z"/>
  <path d="M382.3 115 c-3.8 -1.5 -2.6 -2.8 2.1 -2.3 3.7 0.5 4.6 0.2 5.9 -1.7 1.7 -2.5 1.2 -4.9 -0.6 -3.1 -1.8 1.8 -6.5 1.3 -8.7 -0.9 -2.8 -2.8 -2.6 -7.5 0.6 -10.6 1.9 -2 3.1 -2.4 4.7 -1.9 1.2 0.4 3.5 0.8 5 0.8 l2.9 0 -0.4 8.3 c-0.2 5.7 -0.8 8.8 -1.8 9.8 -2 2 -6.9 2.8 -9.7 1.6z m7.5 -9.2 c1.7 -1.7 1.5 -6.3 -0.2 -7.7 -4.6 -3.8 -11.1 2.5 -7.1 6.9 2 2.2 5.5 2.6 7.3 0.8z"/>
  <path d="M612.3 115.3 c-2.2 -0.8 -1.4 -2.3 1.1 -2.3 3.7 0 3.8 -2.3 0.6 -10.1 -1.7 -3.9 -3 -7.6 -3 -8.1 0 -2.1 2 0.6 4.5 5.9 2.8 6.1 3.4 6.1 5.5 -0.5 1.3 -4.1 2.6 -5.9 3.6 -4.9 1 0.9 -6.9 18.8 -8.6 19.7 -1.1 0.6 -2 1 -2.2 0.9 -0.2 0 -0.9 -0.3 -1.5 -0.6z"/>
  <path d="M416.4 112 c0.3 -1.4 0.6 -3.1 0.6 -3.7 0 -0.7 0.5 -1.3 1 -1.3 1.5 0 1.2 3.4 -0.6 5.6 -1.5 1.8 -1.5 1.8 -1 -0.6z"/>
  <path d="M88.8 111.7 c-4.2 -1 -6.5 -3.3 -24.3 -24.6 l-12 -14.3 -0.3 19.6 -0.2 19.6 -4.5 0 c-3.8 0 -4.5 -0.3 -4.5 -2 0 -1.3 0.7 -2 1.9 -2 2.6 0 3 -5.1 3 -40.1 l-0.1 -28.7 -7 -8.3 c-3.9 -4.6 -7.5 -8.6 -7.9 -8.7 -0.5 -0.2 -0.9 1.5 -0.9 3.7 0 3.4 -0.3 4.1 -2 4.1 -1.8 0 -2 -0.7 -2 -7.5 l0 -7.5 12.5 0 c9.6 0 13.2 0.4 16 1.7 3.2 1.5 20.8 20.6 29 31.5 l3 4 0.3 -18.7 0.2 -18.6 21.3 0.3 c20.8 0.3 21.3 0.4 26.3 3 9.9 5.2 14.6 10.9 17.8 21.7 2.1 7.2 2.1 16 0.1 16.8 -2.4 0.9 -2.8 -0.1 -3.5 -8.9 -0.8 -9.5 -2.9 -14.5 -8.7 -19.9 -7.7 -7.4 -10.9 -8.3 -28.8 -8.7 l-16 -0.4 2.6 2.9 c1.4 1.5 4.7 5.2 7.4 8.1 l4.8 5.2 6.9 0 c8.1 0 12 1.7 14.8 6.3 2.3 3.7 2.7 12.8 0.7 14.9 -0.7 0.7 -1.6 2.1 -2 3 -1.5 4 -5.5 5.2 -18.9 5.7 l-13 0.6 5.8 7.3 5.9 7.4 8.5 -0.4 c9.3 -0.5 15.5 -2.7 20.2 -7.2 2.6 -2.5 7.8 -3.6 7.8 -1.7 0 1.6 -8.3 8.3 -12.9 10.4 -3.2 1.5 -7.4 2.2 -13.8 2.5 l-9.3 0.4 0 13.8 c0 12.1 -0.2 13.9 -1.7 14.5 -1 0.3 -1.9 0.2 -2.1 -0.3 -0.1 -0.5 -2.3 -0.7 -4.7 -0.4 -4 0.4 -4.5 0.2 -4.5 -1.6 0 -1.6 0.7 -2.1 3.2 -2.4 l3.1 -0.3 -6 -7 c-9.2 -10.5 -30.8 -36 -39.3 -46.3 -4.1 -5 -7.8 -9.1 -8.2 -9.1 -0.5 -0.1 -0.8 4.5 -0.8 10.1 l0 10.1 4.8 5.6 c2.7 3.1 10.5 12.4 17.5 20.7 6.9 8.3 13.3 15.4 14.2 15.8 0.9 0.3 3 0.6 4.6 0.6 2.2 0 2.9 0.5 2.9 1.9 0 2.4 -2.5 3 -7.2 1.8z m20 -19 l0.1 -10.4 -10.2 -12.1 c-23.9 -28.3 -41.4 -48.1 -43.9 -49.6 -3.5 -2.1 -18.3 -2.3 -17.1 -0.2 0.4 0.7 4.7 5.8 9.5 11.2 9.9 11.3 42.5 49.6 53.2 62.6 3.9 4.7 7.4 8.7 7.8 8.7 0.3 0.1 0.6 -4.6 0.6 -10.2z m18.1 -33.6 c4.6 -2.5 6.3 -9.8 3.6 -15.1 -2.1 -4.1 -4.3 -5 -11.9 -5 l-6.6 0 0 10.3 c0 5.7 0.2 10.6 0.5 10.9 0.9 0.9 12.2 0 14.4 -1.1z m-18.9 -10.7 l0 -11.5 -6.7 -7.5 c-3.7 -4.1 -7.1 -7.4 -7.5 -7.4 -1.2 0 -1 33.8 0.2 36.1 0.9 1.6 2.2 1.9 7.5 1.9 l6.5 0 0 -11.6z"/>
  <path d="M302.5 111.5 c0.3 -0.8 0.7 -2.2 1 -3.1 0.3 -0.8 0.9 -1.3 1.5 -0.9 0.6 0.4 0.5 1.5 -0.2 3 -1.2 2.7 -3 3.5 -2.3 1z"/>
  <path d="M30.3 111.3 c-2.2 -0.4 -2.3 -0.9 -2.3 -9.4 0 -8.2 0.1 -8.9 2 -8.9 1.8 0 2 0.7 2.2 5.8 0 3.1 0.1 6.4 0.2 7.2 0.1 0.9 1.3 1.6 3.4 1.8 2.4 0.2 3.2 0.8 3.2 2.3 0 1.5 -0.7 1.9 -3.2 1.8 -1.8 -0.1 -4.3 -0.4 -5.5 -0.6z"/>
  <path d="M196 99.6 c0 -5.9 0.4 -10.8 1 -11.1 0.6 -0.4 1 3.3 1 10.4 0 6.7 -0.4 11.1 -1 11.1 -0.6 0 -1 -4.1 -1 -10.4z"/>
  <path d="M203.8 107.5 c-1.5 -3.4 1.2 -6.5 5.8 -6.5 1.8 0 3.5 -0.4 3.8 -0.9 1.1 -1.6 -2.3 -3.4 -5.4 -2.7 -2.2 0.4 -3 0.2 -3 -0.9 0 -0.8 0.6 -1.5 1.3 -1.5 0.6 0 2.2 -0.3 3.4 -0.6 3.8 -1 6.3 2.7 6.3 9.4 l0 5.8 -5.5 0.2 c-5 0.2 -5.6 0 -6.7 -2.3z m9.2 -1 c2 -2.4 0.6 -4.3 -2.7 -3.7 -3.6 0.6 -5.3 2 -4.6 3.8 0.7 1.8 5.7 1.8 7.3 -0.1z"/>
  <path d="M221 102.7 l0 -7.4 2.8 0 c1.5 0 3.5 -0.3 4.4 -0.7 1.1 -0.5 2.3 -0.1 3.7 1.3 1.7 1.7 2.1 3.4 2.1 8.1 0 7.9 -1.8 7.7 -2.2 -0.2 -0.3 -5.9 -0.5 -6.3 -2.9 -6.6 -3.4 -0.4 -4.7 1.4 -5.1 7.2 -0.2 2.8 -0.8 5.1 -1.5 5.4 -1 0.3 -1.3 -1.6 -1.3 -7.1z"/>
  <path d="M239.2 102.8 l0.3 -7.2 5.1 -0.3 c6.5 -0.4 7.8 1 7.8 8.5 0 7.6 -2.2 8.2 -2.6 0.6 -0.2 -4.1 -0.8 -6 -2 -6.8 -3.3 -2 -5.3 0.4 -5.6 6.8 -0.2 4.2 -0.7 5.6 -1.8 5.6 -1.2 0 -1.4 -1.3 -1.2 -7.2z"/>
  <path d="M258 102.5 c0 -4.3 0.4 -7.5 1 -7.5 0.6 0 1 3.2 1 7.5 0 4.3 -0.4 7.5 -1 7.5 -0.6 0 -1 -3.2 -1 -7.5z"/>
  <path d="M266 102.6 c0 -8.2 -0.9 -7.4 8 -7.6 1.4 0 3.1 0.8 3.8 1.7 1.4 2 1.6 13.3 0.2 13.3 -0.5 0 -1 -2.4 -1 -5.3 0 -5.7 -1.2 -7.7 -4.5 -7.7 -2.7 0 -4.5 3.7 -4.5 9 0 2.2 -0.4 4 -1 4 -0.6 0 -1 -3.1 -1 -7.4z"/>
  <path d="M320.6 108.2 c-2.3 -2.7 -2.1 -8.7 0.5 -11.3 1.7 -1.7 2.9 -2 6 -1.5 l3.9 0.6 0 -4.1 c0 -2.6 0.4 -3.9 1.1 -3.7 0.8 0.3 1.2 4 1.3 10.9 l0.1 10.6 -5.6 0.1 c-4.3 0.1 -6 -0.3 -7.3 -1.6z m9.2 -1.4 c0.7 -0.7 1.2 -2.7 1.2 -4.5 0 -2.6 -0.6 -3.6 -2.4 -4.5 -3.1 -1.4 -5.3 -0.5 -6.8 2.7 -1.7 3.7 0.3 7.5 4 7.5 1.5 0 3.3 -0.5 4 -1.2z"/>
  <path d="M340 107.8 c-4.4 -4.7 -1.3 -12.8 4.9 -12.8 3 0 5.3 1.6 7.2 5.1 1.5 2.9 0.4 3.7 -4.8 3.2 -5.9 -0.5 -8.3 0.8 -6.3 3.2 1.1 1.3 2.5 1.6 5.7 1.2 4.2 -0.4 5.8 0.5 2.7 1.7 -3.3 1.3 -7.4 0.6 -9.4 -1.6z m9.3 -8.4 c-1.1 -2.8 -8.3 -2.9 -8.3 0 0 2 0.6 2.2 4.9 1.8 2.8 -0.3 3.8 -0.8 3.4 -1.8z"/>
  <path d="M356.7 109.3 c-1.7 -1.6 -0.4 -2.3 3.3 -1.7 3.3 0.5 4 0.4 4 -1 0 -0.9 -1.7 -2.4 -3.7 -3.3 -4.1 -2 -5.4 -5.1 -2.9 -7.2 1.9 -1.6 7.8 -1 8.4 0.7 0.3 1 -0.4 1.2 -3.2 0.7 -3 -0.6 -3.6 -0.4 -3.6 0.9 0 1 1.5 2.3 3.4 3.1 3.8 1.6 5.4 4.8 3.6 7 -1.2 1.5 -8.1 2.1 -9.3 0.8z"/>
  <path d="M371.9 109.6 c-0.8 -0.8 0.3 -14.6 1.2 -14.6 0.5 0 0.9 3.4 0.9 7.5 0 6.6 -0.6 8.6 -2.1 7.1z"/>
  <path d="M399 102.4 c0 -6.5 0.2 -7.5 1.6 -7 0.8 0.3 2.3 0.2 3.3 -0.4 2.6 -1.3 5.7 -0.2 7 2.6 1.7 3.8 1.4 12.4 -0.4 12.4 -1 0 -1.5 -1.6 -1.7 -6.2 -0.3 -5.8 -0.5 -6.3 -2.7 -6.6 -3.4 -0.5 -5.1 2.2 -5.1 8 0 2.6 -0.4 4.8 -1 4.8 -0.6 0 -1 -3.2 -1 -7.6z"/>
  <path d="M434.7 108.2 c-2.3 -2.6 -2.1 -6.7 0.4 -8.3 1.8 -1.3 1.9 -1.8 0.9 -4 -1.7 -3.8 0.1 -6.9 4.1 -6.9 2.2 0 3.2 0.6 4.1 2.5 1 2.1 0.8 2.9 -1 4.8 -2 2.2 -2.1 2.4 -0.5 4.6 1.5 2.3 1.7 2.3 2.9 0.6 1.7 -2.3 3.2 -1.1 1.7 1.3 -0.8 1.4 -0.7 2.3 0.3 3.7 2 2.7 1.7 3.7 -0.7 2.4 -1.6 -0.8 -2.8 -0.8 -4.6 0 -3.4 1.6 -5.8 1.4 -7.6 -0.7z m7.3 -1.7 c1.1 -1.3 0.9 -2 -1 -4 -2.2 -2.3 -2.5 -2.4 -4.2 -0.8 -2.1 1.9 -2.3 3.4 -0.6 5.1 1.7 1.7 4.3 1.5 5.8 -0.3z m-0.1 -11.3 c1.2 -2.3 -0.2 -4.7 -2.3 -3.9 -2.4 1 -2 5.7 0.5 5.7 0.5 0 1.3 -0.8 1.8 -1.8z"/>
  <path d="M462.7 109.4 c-1.1 -1.2 -0.8 -5.9 0.5 -7.2 0.7 -0.7 2.9 -1.2 5 -1.2 2.1 0 3.8 -0.4 3.8 -0.9 0 -1.6 -2.9 -3.3 -5.2 -3 -1.3 0.2 -2.5 -0.1 -2.8 -0.6 -0.3 -0.6 1.4 -1.1 3.7 -1.3 5.3 -0.4 7.3 2.1 7.3 9.3 l0 5.1 -5.8 0.2 c-3.2 0.1 -6.1 -0.1 -6.5 -0.4z m9.1 -4.1 c0.3 -1.9 -0.1 -2.3 -2.6 -2.3 -3.2 0 -5.8 2.2 -4.7 4 0.4 0.6 2.1 1 3.8 0.8 2.4 -0.2 3.3 -0.8 3.5 -2.5z"/>
  <path d="M481 108 c-1.2 -1.2 -2 -3.3 -2 -5.5 0 -4.6 2.9 -7.5 7.5 -7.5 3.8 0 7 3.4 6.3 6.7 -0.3 1.5 -1.2 1.7 -5 1.5 -5 -0.4 -6.8 0.9 -4.7 3.4 1 1.2 2.3 1.4 5.1 1 3.8 -0.6 5.3 0.6 2.2 1.8 -3.1 1.2 -7.4 0.6 -9.4 -1.4z m9 -9 c-1.2 -2.2 -4.9 -2.7 -6.8 -0.8 -2.1 2.1 -1.3 2.8 3.3 2.8 4.3 0 4.5 -0.1 3.5 -2z"/>
  <path d="M498 102.5 c0 -4.3 0.4 -7.5 1 -7.5 0.6 0 1 0.5 1 1 0 0.6 0.8 0.5 2 -0.2 3.1 -2 3.8 0.2 0.7 2.4 -2.3 1.7 -2.7 2.7 -2.7 6.9 0 2.7 -0.4 4.9 -1 4.9 -0.6 0 -1 -3.2 -1 -7.5z"/>
  <path d="M509.8 102.9 c-0.3 -7.3 -0.1 -8.2 1.3 -7.3 1.2 0.7 1.1 14.4 0 14.4 -0.5 0 -1.1 -3.2 -1.3 -7.1z"/>
  <path d="M517.7 109.4 c-1.1 -1.2 -0.8 -5.9 0.5 -7.2 0.7 -0.7 2.9 -1.2 5.1 -1.2 3.1 0 3.8 -0.3 3.5 -1.7 -0.3 -1.4 -1.3 -1.8 -4.6 -1.7 -4.7 0.1 -5.2 -1.4 -0.9 -2.9 2.1 -0.7 3.4 -0.5 5.2 0.7 2.2 1.5 2.5 2.3 2.5 8 l0 6.3 -5.3 0.2 c-2.9 0.1 -5.6 -0.2 -6 -0.5z m9.1 -4.1 c0.3 -1.9 -0.1 -2.3 -2.6 -2.3 -3.2 0 -5.8 2.2 -4.7 4 0.4 0.6 2.1 1 3.8 0.8 2.4 -0.2 3.3 -0.8 3.5 -2.5z"/>
  <path d="M535 99 c0 -6.7 0.4 -11 1 -11 0.6 0 1 4.3 1 11 0 6.7 -0.4 11 -1 11 -0.6 0 -1 -4.3 -1 -11z"/>
  <path d="M551.1 107.8 c-1.6 -4.5 0.5 -6.8 6.2 -6.8 2 0 3.7 -0.4 3.7 -0.9 0 -1.9 -3.1 -3.3 -6 -2.7 -3.7 0.7 -4 -1.1 -0.4 -2.4 2.6 -1 6.1 0.1 7.6 2.4 0.4 0.6 0.8 3.6 0.8 6.6 l0 5.6 -5.5 0.2 c-5 0.2 -5.6 0 -6.4 -2z m8.7 -1 c2.2 -2.2 1.3 -3.8 -2.2 -3.8 -3.7 0 -5.1 1.2 -4.2 3.5 0.7 1.8 4.7 2 6.4 0.3z"/>
  <path d="M569 103.5 c0 -3.6 -0.1 -6.8 -0.2 -7.2 -0.2 -0.5 0.8 -0.8 2.2 -0.9 1.4 -0.1 3.2 -0.4 4.1 -0.8 3.1 -1.4 5.9 2.4 6.5 9.2 0.6 5.3 0.5 6.2 -1 6.2 -1.3 0 -1.6 -1.1 -1.6 -6 0 -5.5 -0.2 -6 -2.5 -6.6 -3.9 -1 -5.5 1.1 -5.5 7.2 0 3 -0.4 5.4 -1 5.4 -0.6 0 -1 -2.8 -1 -6.5z"/>
  <path d="M587.2 108.8 c-3.1 -3.1 0.4 -7.8 5.6 -7.8 2.1 0 3.2 -0.5 3.2 -1.4 0 -1.7 -2.2 -2.6 -6.3 -2.6 -3.6 0 -2.6 -1.4 1.6 -2.4 2.1 -0.5 3.3 -0.1 5.2 1.8 2 2 2.5 3.5 2.5 7.8 l0 5.3 -5.3 0.2 c-3.1 0.2 -5.8 -0.2 -6.5 -0.9z m8.6 -3.9 c0.3 -2.3 0 -2.5 -2.7 -2.1 -6 0.8 -6.7 5.6 -0.8 5 2.6 -0.2 3.3 -0.8 3.5 -2.9z"/>
  <path d="M604.7 109.3 c-1.1 -1.1 -0.8 -21.3 0.3 -21.3 0.6 0 1 4.3 1 11 0 11 -0.1 11.6 -1.3 10.3z"/>
  <path d="M629.2 109.3 c-2.6 -1 0 -2.1 3.8 -1.6 3.5 0.5 4 0.3 4 -1.4 0 -1.4 -1 -2.3 -3.1 -2.9 -4 -1.2 -5.8 -3.7 -4.3 -6.1 1.2 -2 5.6 -2.9 8.2 -1.7 1.2 0.6 0.6 0.9 -2.3 1.3 -5 0.7 -5.2 2.7 -0.5 5 3.7 1.7 5.3 5.7 2.8 7.2 -1.4 0.9 -6.5 1.1 -8.6 0.2z"/>
  <path d="M644.7 109.3 c-1.1 -1 -0.8 -13.1 0.3 -13.8 0.6 -0.4 1 2.2 1 6.9 0 7.6 -0.1 8.2 -1.3 6.9z"/>
  <path d="M652.7 109.3 c-1.5 -1.4 -0.5 -2 3.1 -1.9 4.8 0.1 4.9 -2 0.2 -4.3 -7.1 -3.3 -3.7 -10.8 3.6 -8 3.5 1.3 2.2 2.4 -2.2 2 -3 -0.2 -3.5 0 -3.2 1.5 0.1 0.9 1.9 2.3 3.8 2.9 3.8 1.3 5.1 4.4 3 7.1 -1.3 1.4 -7.1 2 -8.3 0.7z"/>
  <path d="M509.6 91.3 c-1.1 -1.1 -0.6 -2.3 0.9 -2.3 0.8 0 1.5 0.4 1.5 0.9 0 1.3 -1.6 2.2 -2.4 1.4z"/>
  <path d="M644.2 89.9 c0.2 -0.6 0.8 -1 1.3 -1 0.5 0 1.1 0.4 1.3 1 0.2 0.6 -0.4 1.1 -1.3 1.1 -0.9 0 -1.5 -0.5 -1.3 -1.1z"/>
  <path d="M638.9 77.5 c-5.8 -1.8 -7.4 -3.5 -5.6 -5.9 1.3 -1.7 1.5 -1.7 4.5 -0.2 1.7 0.9 5.2 1.6 7.7 1.6 6.1 0 10.5 -4 10.5 -9.4 0 -4.2 -0.3 -4.3 -3.7 -1.6 -3.6 2.8 -11 2.7 -15.4 -0.3 -6.5 -4.4 -8.5 -15.5 -4.1 -22.9 3.8 -6.5 14.1 -8.4 20.4 -3.8 l2.8 2.1 0 -2.1 c0 -1.7 0.5 -2.1 2.8 -1.8 l2.7 0.3 0.3 13.4 c0.3 14.7 -0.9 23.4 -3.5 26.4 -4.3 4.6 -12.3 6.4 -19.4 4.2z m14.3 -21.5 c2.8 -2.9 3 -3.5 2.6 -8.7 -0.4 -4.6 -1 -6.1 -3.2 -8 -7.6 -6.5 -18.8 1.9 -16.2 12.3 1.9 7.6 11.2 10 16.8 4.4z"/>
  <path d="M406 55 l0 -22 2.5 0 c1.8 0 2.5 0.5 2.5 2 0 1.8 0.2 1.8 3.6 -0.5 4.4 -3 8.4 -3.1 14.1 -0.6 14.1 6.5 9.3 32.1 -6 32.1 -4.1 0 -9.7 -2.4 -9.7 -4.1 0 -0.6 -0.4 -0.7 -1 -0.4 -0.5 0.3 -1 4 -1 8.1 0 7.2 -0.1 7.4 -2.5 7.4 l-2.5 0 0 -22z m20.1 5 c4.3 -2.3 6.4 -12.1 3.8 -17.3 -3.1 -6 -9.7 -7.4 -14.7 -3.2 -5.2 4.4 -5.4 12.7 -0.6 18.5 2.8 3.2 7.6 4.1 11.5 2z"/>
  <path d="M218.5 64.8 c-5 -2.7 -7 -9.1 -4.4 -14 1.6 -2.9 8.6 -5.8 14.7 -5.8 5.8 0 6.9 -1.7 3 -4.4 -2.7 -1.9 -5 -2 -9.6 -0.4 -3 1.1 -3.5 1.1 -4.8 -0.7 -2.2 -3 -1.7 -4.5 2.3 -6.2 5 -2 14.4 -1.4 18.1 1.4 3.9 2.9 5.1 7.4 5.1 19.6 l0.1 10.7 -4.5 0 c-3.2 0 -4.5 -0.4 -4.5 -1.4 0 -1.1 -0.8 -1 -3.7 0.5 -4.1 2.1 -8.8 2.4 -11.8 0.7z m13.2 -8 c1.3 -1.2 2.3 -3 2.3 -4 0 -1.4 -0.8 -1.8 -4.1 -1.8 -2.2 0 -4.9 0.5 -6 1 -1.8 1 -2.6 5 -1.2 6.3 1.4 1.5 6.8 0.6 9 -1.5z"/>
  <path d="M258.1 64.9 c-4.3 -1.7 -5 -3.7 -5.1 -14.6 l0 -10.3 -2.5 0 c-2.3 0 -2.5 -0.4 -2.5 -4.1 0 -3.5 0.2 -4 1.9 -3.4 1.7 0.5 2 0 2.3 -3.7 l0.3 -4.3 4.8 -0.3 4.7 -0.3 0 4.6 c0 4.6 0 4.6 3.3 4.3 3.1 -0.3 3.2 -0.1 3.2 3.2 0 3.2 -0.3 3.5 -3.2 3.8 l-3.3 0.3 0 7.9 c0 8.4 0.7 9.7 4.8 9.1 2 -0.2 2.2 0.2 2.2 3.7 0 2.7 -0.5 4.2 -1.6 4.6 -2.2 0.9 -6.5 0.6 -9.3 -0.5z"/>
  <path d="M305.4 64 c-7.7 -3.8 -11 -14.8 -6.9 -23.3 3.8 -8.1 16.3 -11.3 24.9 -6.4 4.7 2.6 8.6 9.3 8.6 14.7 0 12.7 -14.6 20.9 -26.6 15z m14.1 -8.5 c3.5 -3.4 3.5 -10.2 0 -13.5 -5.5 -5.2 -13.5 -1.3 -13.5 6.5 0 8.6 7.9 12.7 13.5 7z"/>
  <path d="M370.5 65 c-7.3 -3 -10.9 -16.4 -6.7 -25 3.4 -7 12.4 -10 19.1 -6.5 1.6 0.8 3.1 1.1 3.5 0.8 0.3 -0.4 0.6 -3.9 0.6 -8 l0 -7.3 4.5 0 4.5 0 0 23 0 23 -4.9 0 c-2.8 0 -5.2 -0.4 -5.6 -0.9 -0.3 -0.6 -1.7 -0.4 -3.3 0.5 -3 1.5 -8.5 1.8 -11.7 0.4z m14.2 -9.6 c2.2 -2.2 2.5 -3.2 2 -7.2 -0.6 -5.5 -3.3 -8.2 -8.2 -8.2 -3.6 0 -6 2.1 -7 6.3 -2.3 9 6.9 15.4 13.2 9.1z"/>
  <path d="M466.4 64.6 c-5.7 -2.5 -6.8 -11 -2.1 -15.4 2.4 -2.3 9.1 -4.1 15 -4.2 3.5 0 3.8 -0.2 3.2 -2.2 -1.6 -5.4 -6.6 -7 -13.2 -4.3 -3.7 1.6 -5.2 0.9 -5.3 -2.1 0 -2.9 11.1 -5.2 16.5 -3.4 6.2 2 7.5 5.4 7.5 19.8 0 12.1 0 12.2 -2.3 12.2 -1.3 0 -2.8 -0.5 -3.4 -1.1 -0.8 -0.8 -1.9 -0.6 -4.1 0.5 -3.8 1.9 -7.6 2 -11.8 0.2z m14 -6.7 c1.4 -1.7 2.6 -4.1 2.6 -5.5 0 -2.2 -0.4 -2.4 -5.4 -2.4 -3.9 0 -6 0.6 -8 2.1 -4.9 3.8 -2.4 8.9 4.4 8.9 3 0 4.3 -0.6 6.4 -3.1z"/>
  <path d="M176.2 48.8 l0.3 -16.3 4.3 -0.3 c3.7 -0.3 4.2 -0.1 4.2 1.7 0 1.2 0.5 2.1 1 2.1 0.6 0 1 -0.4 1 -0.9 0 -1.3 5.7 -3.4 9.1 -3.3 3.8 0.1 8.4 2.9 9.8 5.9 0.6 1.3 1.1 8 1.1 14.8 l0 12.5 -4.5 0 -4.5 0 0 -9.9 c0 -12.7 -0.8 -15.1 -5.3 -15.1 -5.6 0 -6.6 2.1 -6.9 14 l-0.3 10.5 -4.8 0.3 -4.8 0.3 0.3 -16.3z"/>
  <path d="M277 52.5 l0 -12.5 -2.6 0 c-2.3 0 -2.5 -0.3 -2.2 -3.7 0.3 -3.2 0.6 -3.8 2.4 -3.5 1.9 0.2 2.3 -0.4 2.9 -4.4 1.1 -7.6 6.4 -11.4 14 -10 3.3 0.7 3.5 0.9 3.5 4.7 0 3.7 -0.1 3.9 -2.5 3.3 -3.1 -0.8 -5.5 1 -5.5 4.2 0 2.1 0.3 2.2 3.6 1.7 l3.5 -0.6 -0.3 3.9 c-0.3 3.7 -0.4 3.9 -3.5 3.6 l-3.3 -0.4 0 13.1 0 13.1 -5 0 -5 0 0 -12.5z"/>
  <path d="M338.8 57.3 c-0.1 -4.3 -0.2 -9.6 -0.1 -11.8 0 -2.2 0.1 -5.9 0.2 -8.2 l0.1 -4.3 4.5 0 c4 0 4.5 0.3 4.5 2.2 l0 2.1 2.3 -2.1 c1.3 -1.2 3.7 -2.5 5.5 -2.8 l3.2 -0.6 0 4.6 c0 4.6 0 4.6 -3.4 4.6 -2.5 0 -4 0.7 -5.5 2.6 -1.8 2.3 -2.1 4.1 -2.1 12 l0 9.4 -4.5 0 -4.5 0 -0.2 -7.7z"/>
  <path d="M447 42 l0 -23 2.5 0 2.5 0 0 23 0 23 -2.5 0 -2.5 0 0 -23z"/>
  <path d="M499.2 49.3 l0.3 -15.8 2.8 -0.3 c1.9 -0.2 2.7 0.1 2.7 1.2 0 2 0.9 2 3 0.1 2.7 -2.4 8.1 -2.9 12.3 -1.1 5.5 2.2 6.7 6 6.7 20.1 l0 11.5 -3 0 -3 0 0 -12 c0 -10.7 -0.2 -12.2 -2 -14 -3 -3 -7.6 -2.6 -11.1 0.9 -2.9 2.9 -2.9 3.1 -2.9 14 l0 11.1 -3 0 -3.1 0 0.3 -15.7z"/>
  <path d="M538 49.1 l0 -16.1 2.5 0 c1.9 0 2.5 0.5 2.5 2.1 0 2 0 2 3.3 -0.3 3.7 -2.7 10 -3.1 14 -0.9 4.1 2.2 5.2 6.3 5.2 19.1 l0 11.5 -2.6 0.3 -2.7 0.3 -0.3 -12.1 c-0.4 -11.4 -0.6 -12.3 -2.8 -14.1 -3.2 -2.6 -7.7 -2.4 -10.6 0.6 -2.7 2.6 -2.7 2.7 -2.9 16 l-0.1 9 -2.7 0.3 -2.8 0.3 0 -16z"/>
  <path d="M576.8 64.3 c-0.2 -0.5 -0.2 -7.7 0 -16 l0.3 -15.3 2.5 0 2.4 0 0 16 0 16 -2.4 0 c-1.4 0 -2.6 -0.3 -2.8 -0.7z"/>
  <path d="M594 49 l0 -16 2.5 0 c1.8 0 2.5 0.5 2.5 2 0 1.8 0.2 1.8 3.6 -0.5 4.2 -2.9 7 -3.1 11.9 -1.1 5.4 2.3 6.5 5.7 6.5 19.6 l0 12 -2.5 0 c-1.4 0 -2.5 -0.3 -2.6 -0.7 0 -0.5 -0.1 -5.9 -0.2 -12.1 -0.2 -10.6 -0.4 -11.5 -2.6 -13.3 -3.2 -2.6 -7.4 -2.4 -10.8 0.5 -2.7 2.4 -2.8 2.7 -3.1 14 -0.4 11.5 -0.4 11.6 -2.8 11.6 l-2.4 0 0 -16z"/>
  <path d="M576 24.6 c0 -3.2 1.3 -4.6 4.1 -4.6 2.6 0 2.9 0.4 2.9 3 0 2.8 -0.3 3 -3.5 3 -2.4 0 -3.5 -0.5 -3.5 -1.4z"/>
 </g>
 <g fill="#3d484e">
  <path d="M28.1 108.9 c0.1 -5.8 0.8 -7.9 2.4 -7.9 1.9 0 2.5 3.8 0.9 5.5 -1.2 1.2 -1.2 1.4 0.3 1.4 1 0 5 0.1 9 0.3 3.9 0.2 6.9 0 6.6 -0.4 -0.2 -0.5 0.5 -0.8 1.6 -0.8 1.1 0 2.1 -0.8 2.4 -1.7 0.2 -1 0.4 0.1 0.3 2.5 0 3.7 -0.3 4.2 -2.3 4.2 -1.3 0 -2.3 -0.6 -2.3 -1.2 0 -0.9 -0.3 -0.8 -1 0.2 -0.7 1.1 -3.3 1.6 -9.5 1.9 l-8.5 0.3 0.1 -4.3z"/>
  <path d="M90.5 111.4 c-2.3 -2.4 -0.5 -3.2 6.9 -3.2 3.4 -0.1 6.9 -0.1 7.9 -0.1 0.9 -0.1 1.7 -0.9 1.7 -1.8 0 -1.5 -0.2 -1.6 -1 -0.3 -0.5 0.8 -1 1 -1 0.4 0 -0.6 -1.6 -2.9 -3.5 -5.1 -4 -4.7 -4.4 -6.3 -1.5 -6.3 1.8 0 2.5 1 2.1 3.3 0 0.4 0.6 0.7 1.4 0.7 1.7 0 3.7 3.4 2.7 4.5 -0.4 0.5 0 0.6 0.9 0.2 1.3 -0.4 1.6 -0.1 1.2 1.4 -0.6 2.3 2.5 3.8 3.8 1.8 0.6 -1 0.8 -0.5 0.7 1.6 -0.1 1.7 -0.7 3.3 -1.3 3.7 -0.5 0.4 -5.1 0.8 -10.2 0.8 -7.2 0 -9.5 -0.4 -10.8 -1.6z"/>
  <path d="M86.8 111.3 c-1.1 -0.3 -1.8 -1.3 -1.7 -2.6 0 -1.2 0.3 -1.6 0.6 -0.9 0.2 0.6 0.8 1 1.3 0.7 0.4 -0.3 1 0.4 1.3 1.5 0.3 1.1 0.4 1.9 0.4 1.9 -0.1 -0.1 -1 -0.3 -1.9 -0.6z"/>
  <path d="M28.1 91.9 c-0.2 -8.3 0 -8.9 1.9 -8.9 1.8 0 2 0.6 2 8.4 0 7.3 -0.2 8.4 -1.8 8.8 -1.7 0.5 -1.9 -0.3 -2.1 -8.3z"/>
  <path d="M138.9 75.3 c0.6 -1 2.5 -3.1 4.2 -4.8 3.7 -3.5 7.9 -11.8 7.9 -15.7 0 -2.1 0.5 -2.8 2 -2.8 3.2 0 3 4.7 -0.5 12.5 -2.5 5.8 -9.1 13.3 -9.8 11.3 -0.3 -1 -0.9 -1 -2.6 0 -2 1.2 -2.1 1.1 -1.2 -0.5z"/>
  <path d="M264 64 c0.9 -1.7 1.4 -1.8 3.2 -0.9 1.7 0.9 1.8 1.3 0.7 2 -0.8 0.5 -2.2 0.9 -3.2 0.9 -1.5 0 -1.6 -0.3 -0.7 -2z"/>
  <path d="M102.7 63.3 c0.3 -0.7 1.5 -1.3 2.7 -1.4 1.9 -0.1 1.9 -0.2 -0.4 -0.9 -2.3 -0.7 -2.3 -0.8 -0.3 -0.9 1.2 -0.1 3.3 0.3 4.7 0.9 1.4 0.5 2.6 0.6 2.6 0.2 0 -1 6.1 -0.9 7.8 0.1 0.6 0.5 1.7 0.5 2.2 0.2 0.6 -0.3 1 0.2 1 1.3 0 1.7 -0.9 1.8 -10.4 1.9 -8.3 0 -10.3 -0.3 -9.9 -1.4z"/>
  <path d="M561.1 64.1 c-1.7 -1.1 -0.5 -3.1 1.9 -3.1 1 0 2.1 -0.8 2.3 -1.7 0.3 -1.2 0.5 -0.9 0.6 0.8 0 1.4 -0.4 3 -1.1 3.7 -1.4 1.4 -1.9 1.5 -3.7 0.3z"/>
  <path d="M616 62.4 c-1.2 -3.1 -1.2 -3.7 -0.1 -3 0.5 0.4 1.2 0 1.4 -0.6 0.3 -0.7 0.6 0.4 0.6 2.5 0.1 4.3 -0.6 4.7 -1.9 1.1z"/>
  <path d="M125.7 62 c-1.7 -1.7 -1.6 -1.8 1.2 -2.9 1.6 -0.7 3.1 -2.1 3.4 -3.2 0.3 -1.2 1.4 -1.9 2.9 -2 2.2 0 2.2 -0.1 0.3 -0.9 -1.6 -0.7 -1.7 -0.9 -0.3 -0.9 0.9 -0.1 2 0.3 2.3 0.9 0.9 1.5 -2.1 6.6 -5.2 8.8 -2.7 1.8 -2.9 1.8 -4.6 0.2z"/>
  <path d="M386.5 60.9 c-0.4 -0.6 -0.4 -1.3 -0.1 -1.6 0.3 -0.3 0.2 -1.1 -0.2 -1.7 -0.5 -0.6 -0.3 -2.7 0.4 -4.6 1.2 -3.3 1.3 -3.3 1.3 -0.8 0.1 1.5 -0.4 3 -0.9 3.3 -0.7 0.4 -0.7 1.1 -0.2 1.8 1.5 2 2.2 4.7 1.2 4.7 -0.5 0 -1.2 -0.5 -1.5 -1.1z"/>
  <path d="M395 58.5 c0 -0.8 -0.7 -1.5 -1.5 -1.5 -2.1 0 -1.9 -1.7 0.3 -2.2 1.3 -0.4 1.7 0.2 1.9 2.4 0.1 1.5 0 2.8 -0.2 2.8 -0.3 0 -0.5 -0.7 -0.5 -1.5z"/>
  <path d="M265 58.1 c0 -0.6 0.9 -0.9 2 -0.8 1.1 0.1 2 0.5 2 0.9 0 0.4 -0.9 0.8 -2 0.8 -1.1 0 -2 -0.4 -2 -0.9z"/>
  <path d="M431.5 50.5 c0.1 -3.4 0.6 -6.8 1 -7.4 0.5 -0.8 0.1 -1.1 -1.1 -0.9 -1.4 0.2 -2 -0.4 -2.2 -2.2 -0.2 -1.4 -0.9 -3.1 -1.5 -3.8 -0.9 -1.1 -0.5 -1.3 1.8 -1 2.1 0.2 3.4 1.3 5.1 4.3 2.7 4.7 2.9 5.6 1 4.9 -0.9 -0.3 -1.5 0.4 -1.8 2 -0.4 2.1 -0.1 2.6 1.6 2.7 1.7 0.1 1.8 0.2 0.4 0.6 -2.2 0.6 -2.3 1.9 -0.2 2.7 2.2 0.8 1.3 2.9 -1.7 3.7 -2.5 0.6 -2.6 0.6 -2.4 -5.6z"/>
  <path d="M83.1 49.3 c-0.6 -1.1 -1.1 -1.3 -1.1 -0.5 0 2.4 -2 0.2 -2 -2.3 0 -1.2 -0.7 -2.5 -1.5 -2.9 -1.7 -0.6 -2.1 -2.6 -0.5 -2.6 1.6 0 5.1 4 4.5 5 -0.4 0.6 0 1 0.8 1 1.7 0 3 2.7 1.7 3.5 -0.5 0.3 -1.3 -0.3 -1.9 -1.2z"/>
  <path d="M132 49.5 c0 -0.8 0.8 -1.1 2 -0.8 1.1 0.3 2 0.7 2 0.8 0 0.1 -0.9 0.5 -2 0.8 -1.2 0.3 -2 0 -2 -0.8z"/>
  <path d="M55 47.5 c-0.7 -0.8 -1 -2.1 -0.7 -3 0.4 -0.8 -0.1 -1.9 -1.1 -2.4 -1.5 -0.9 -1.4 -1 0.5 -1.1 2.8 0 3.8 1.7 2.3 3.5 -1 1.2 -1 1.8 0 3 0.7 0.8 1 1.5 0.7 1.5 -0.2 0 -1 -0.7 -1.7 -1.5z"/>
  <path d="M133.8 46.3 c1.8 -0.7 1.5 -2.3 -0.5 -2.3 -1.5 0 -1.6 -0.2 -0.3 -1 0.9 -0.6 1.7 -0.5 2.2 0.3 1.3 2.1 0.9 3.7 -0.9 3.6 -1.1 0 -1.3 -0.3 -0.5 -0.6z"/>
  <path d="M73.3 40.3 c-0.7 -0.3 -1.3 -1.5 -1.3 -2.8 0 -1.3 -0.6 -2.6 -1.2 -2.8 -0.9 -0.4 -0.8 -0.6 0.2 -0.6 2.3 -0.1 4.9 2.3 4.6 4.2 -0.3 2.1 -0.8 2.5 -2.3 2z"/>
  <path d="M274.8 39.7 c-1.7 -0.8 -2.5 -1.6 -2 -2.4 0.5 -0.8 1.4 -0.4 3.1 1.3 2.6 2.7 2.6 2.8 -1.1 1.1z"/>
  <path d="M263.3 39.3 c0.9 -0.2 1.7 -0.8 1.7 -1.3 0 -0.4 0.9 -1 2 -1.3 1.1 -0.3 2 -0.2 2 0.1 -0.1 1.7 -1.8 2.8 -4.5 2.9 -1.6 0 -2.2 -0.1 -1.2 -0.4z"/>
  <path d="M378 38.6 c0 -0.8 -0.6 -1.7 -1.2 -1.9 -0.8 -0.3 -0.6 -0.6 0.5 -0.6 1.1 -0.1 1.7 0.6 1.7 1.9 0 1.1 -0.2 2 -0.5 2 -0.3 0 -0.5 -0.6 -0.5 -1.4z"/>
  <path d="M637 39 c-1.2 -0.8 -1.2 -1 0.3 -1.6 2.1 -0.8 3.5 0.2 2.1 1.6 -0.5 0.5 -1.5 0.6 -2.4 0z"/>
  <path d="M116 37.4 c0 -2.7 5.5 -3.2 6.9 -0.6 0.8 1.6 0.5 1.8 -3 1.8 -2.4 0 -3.9 -0.4 -3.9 -1.2z"/>
  <path d="M371.5 35.5 c-2.8 -1.3 -2.9 -1.6 -0.6 -1.9 0.5 0 1.2 -0.4 1.6 -0.8 0.4 -0.3 1.9 -0.3 3.5 0.2 1.5 0.4 3.2 0.4 3.7 -0.1 0.4 -0.4 1.4 -0.4 2.2 0.1 1.1 0.6 0.5 1 -2.2 1.5 -1.9 0.4 -4.1 0.4 -4.8 -0.1 -0.9 -0.5 -1 -0.2 -0.6 0.9 0.3 1 0.5 1.7 0.4 1.6 -0.1 0 -1.5 -0.7 -3.2 -1.4z"/>
  <path d="M65.7 31.7 c-1.5 -1.7 -2.7 -3.7 -2.7 -4.4 0 -0.7 -0.6 -1.3 -1.4 -1.3 -1.1 0 -6.6 -6 -6.6 -7.3 0 -0.2 1 -0.3 2.2 -0.3 2.6 0.1 8.2 5.2 7.3 6.7 -0.4 0.5 -0.1 0.9 0.5 0.9 0.6 0 2.2 1.2 3.5 2.6 2.1 2.2 2.3 3 1.3 4.3 -0.7 0.9 -1.3 1.7 -1.3 1.8 0 0.1 -1.3 -1.2 -2.8 -3z"/>
  <path d="M416.5 33.7 c1.2 -0.9 3.7 -1.4 5.8 -1.3 5.1 0.4 6 1.6 1.1 1.6 -2.1 0 -5 0.3 -6.4 0.6 -2.4 0.6 -2.4 0.6 -0.5 -0.9z"/>
  <path d="M143.5 29.2 c-0.3 -0.3 -0.5 -1.3 -0.5 -2.3 0 -1.2 -0.5 -1.6 -1.5 -1.3 -0.8 0.4 -1.5 0.3 -1.5 0 0 -0.4 1 -1 2.2 -1.5 2.3 -0.8 5.1 0.8 6.9 4.1 0.8 1.4 0.4 1.7 -2.1 1.6 -1.6 -0.1 -3.2 -0.3 -3.5 -0.6z"/>
  <path d="M40.4 27.5 c-0.4 -0.8 -1 -1.2 -1.5 -0.9 -0.5 0.3 -1.6 -0.1 -2.4 -1 -1.8 -1.8 -2 -5.9 -0.2 -5.3 0.6 0.2 1.1 1.1 0.9 2.1 -0.2 1 0.4 1.6 1.5 1.6 1 0 2.6 1.2 3.6 2.5 1.6 2.2 1.6 2.5 0.2 2.5 -0.9 0 -1.8 -0.7 -2.1 -1.5z"/>
  <path d="M98 23.1 c-0.8 -0.6 -1.8 -0.7 -2.2 -0.5 -0.4 0.3 -0.8 0.1 -0.8 -0.5 0 -2.6 4.4 -2.2 5.4 0.5 0.6 1.6 -0.2 1.8 -2.4 0.5z"/>
  <path d="M137 22.2 c0 -1.4 0.6 -2.2 1.6 -2.2 1.4 0 1.5 0.3 0.3 1.8 -0.7 0.9 -1.5 1.9 -1.6 2.1 -0.2 0.2 -0.3 -0.5 -0.3 -1.7z"/>
  <path d="M134.3 22.3 c-1.7 -0.6 -1.7 -3.3 0 -3.3 0.7 0 1.3 0.9 1.3 2 0 1.1 0 2 -0.1 1.9 0 0 -0.6 -0.3 -1.2 -0.6z"/>
  <path d="M46.8 19.3 c-4.5 -0.3 -6.8 -0.8 -7.2 -1.8 -0.6 -1.6 2.5 -2.4 9.4 -2.4 4.1 0 4.5 0.2 4.5 2.4 0 1.4 0 2.4 0 2.3 0 -0.1 -3 -0.3 -6.7 -0.5z"/>
  <path d="M125.5 19.3 c-1.1 -0.3 -2.3 -1 -2.7 -1.7 -0.6 -0.8 -1 -0.8 -1.5 0 -0.5 0.6 -1.7 0.9 -2.8 0.7 -5.8 -1.3 -8.5 -1.4 -8.5 -0.4 0 0.6 -1.3 1.1 -3 1.1 -2.1 0 -3 -0.5 -3 -1.6 0 -1.2 -0.6 -1.5 -2.6 -1 -1.7 0.5 -2.3 0.3 -1.9 -0.4 0.8 -1.3 29.5 -1.2 29.5 0.1 0 0.5 -0.5 0.9 -1.1 0.9 -0.6 0 -0.9 0.7 -0.5 1.5 0.3 0.8 0.4 1.4 0.3 1.4 -0.1 -0.1 -1.1 -0.4 -2.2 -0.6z"/>
 </g>
 <g fill="#3d4246">
  <path d="M303.3 110.1 c0.6 -1.7 1.4 -2.8 1.8 -2.5 0.8 0.5 -1.2 5.4 -2.3 5.4 -0.3 0 -0.1 -1.3 0.5 -2.9z"/>
  <path d="M221 105.6 c0 -3.1 0.4 -4.3 1.5 -4.3 1.1 0 1.5 1.1 1.5 3.8 0 2.3 -0.5 3.9 -1.5 4.3 -1.2 0.4 -1.5 -0.4 -1.5 -3.8z"/>
  <path d="M372.5 109.2 c-0.6 -0.4 -0.8 -2 -0.5 -3.7 l0.6 -3 0.5 3.8 c0.3 2 0.5 3.7 0.4 3.7 0 0 -0.5 -0.4 -1 -0.8z"/>
  <path d="M644.1 102.7 c0.1 -3.7 0.5 -7 0.9 -7.2 0.8 -0.5 0.1 12.6 -0.7 13.5 -0.2 0.2 -0.3 -2.6 -0.2 -6.3z"/>
  <path d="M196 99.5 c0 -1.4 0.4 -2.5 0.9 -2.5 0.4 0 0.6 1.1 0.3 2.5 -0.2 1.4 -0.6 2.5 -0.8 2.5 -0.2 0 -0.4 -1.1 -0.4 -2.5z"/>
  <path d="M28.1 62.3 l-0.2 -38.1 2.2 0.5 c2.2 0.6 2.2 0.7 0.3 1.4 -1.6 0.7 -1.7 0.8 -0.1 0.8 1.6 0.1 1.7 2.3 1.7 31.6 0 27.3 -0.2 31.5 -1.5 31.5 -0.8 0 -1.5 0.5 -1.5 1 0 0.6 0.7 1 1.5 1 1 0 1.5 1 1.5 3 0 1.9 -0.5 3 -1.4 3 -0.8 0 -1.6 0.6 -1.9 1.3 -0.2 0.6 -0.5 -16 -0.6 -37z"/>
  <path d="M196 92.9 c0 -0.8 0.5 -2.1 1 -2.9 0.8 -1.2 0.9 -1 0.7 0.7 -0.4 2.6 -1.7 4.3 -1.7 2.2z"/>
  <path d="M151.4 50.8 c0.1 -6.5 0.3 -7.3 2.1 -7.5 l2 -0.3 -2 0.9 c-1.9 0.9 -1.8 1 0.5 1.1 2.5 0.1 2.5 0.1 0.3 1 -2.8 1.1 -2.9 2.3 -0.5 4.7 1 1 1.7 2.5 1.7 3.3 -0.1 0.8 -0.3 2.1 -0.3 2.8 -0.1 0.6 -1 1.2 -2 1.2 -1.6 0 -1.8 -0.9 -1.8 -7.2z"/>
  <path d="M50 18 c0 -0.5 -0.8 -1 -1.7 -1.1 -1.2 -0.1 -1 -0.4 0.7 -0.9 2.8 -0.9 6.3 -1.2 4.3 -0.3 -0.7 0.2 -1.3 1.1 -1.3 1.9 0 0.8 -0.4 1.4 -1 1.4 -0.5 0 -1 -0.4 -1 -1z"/>
  <path d="M115.5 17 c-0.3 -0.5 0.3 -1 1.4 -1 1.2 0 2.1 0.5 2.1 1 0 0.6 -0.6 1 -1.4 1 -0.8 0 -1.8 -0.4 -2.1 -1z"/>
 </g>
</svg>